<?xml version="1.0" encoding="UTF-8"?>
<svg id="_레이어_2" data-name="레이어 2" xmlns="http://www.w3.org/2000/svg" viewBox="0 0 240.12 129.3">
  <defs>
    <style>
      .cls-1 {
        fill: #284e6b;
      }

      .cls-2 {
        fill: #f4b40f;
      }

      .cls-3 {
        fill: none;
      }

      .cls-4 {
        opacity: .23;
      }
    </style>
  </defs>
  <g id="_레이어_1-2" data-name="레이어 1">
    <g>
      <path d="M78.53,65.41v15.52H1.39v-15.52h30.98v-16.4h15.18v16.4h30.98ZM23.8,47.78c-6.25,2.91-12.86,4.4-19.82,4.47v-15.22c6.43-.13,12.28-1.98,17.54-5.55,5.27-3.57,8.94-8.36,11.03-14.39H5.32V1.96h69.28v15.12h-25.71c-.36,1.64-.95,3.6-1.79,5.89l30.71,16.6-6.87,13.36-31.25-17.28c-4.35,5.17-9.64,9.22-15.89,12.13Z"/>
      <path d="M215.57,12.37c0,11.07-4.05,19.27-12.15,24.6-8.1,5.34-18.97,8-32.63,8v-14.04c5.88-.06,11.08-.72,15.6-1.96,4.52-1.24,8.04-2.98,10.55-5.21,2.51-2.23,3.76-4.81,3.76-7.76v-1.28h-29.91V.98h44.78v11.39ZM240.12,83.87h-66.05v-35.55h66.05v35.55ZM225.51,70.22v-8.25h-36.83v8.25h36.83ZM240.12,45.37h-14.61V0h14.61v45.37Z"/>
      <g>
        <g>
          <path d="M160.93,16.23c-1.96,0-3.64-.75-3.64-1.63l1.74,68.3s0,.02,0,.02c0,.4.73.73,1.63.73.9,0,1.63-.33,1.63-.73l2.24-68.36c0,.88-1.63,1.66-3.59,1.66Z"/>
          <path class="cls-2" d="M160.93,16.23c1.96,0,3.59-.78,3.59-1.66l.33-12.81c0,.97-1.75,1.76-3.91,1.75-2.16,0-3.91-.79-3.91-1.76l.26,12.85c0,.88,1.67,1.63,3.64,1.63Z"/>
          <path class="cls-2" d="M160.9,19.24c-1.73,0-3.24-.58-3.58-1.32l.02,1.66c0,.87,1.65,1.6,3.58,1.6,1.93,0,3.53-.77,3.53-1.63l.03-1.78c-.21.8-1.75,1.48-3.58,1.48Z"/>
          <polygon class="cls-1" points="164.85 1.76 164.85 1.76 164.85 1.76 164.85 1.76"/>
          <path d="M160.94,0c-2.16,0-3.91.78-3.91,1.75s1.75,1.76,3.91,1.76c2.16,0,3.91-.78,3.91-1.75,0,0,0,0,0,0,0-.97-1.75-1.76-3.91-1.76Z"/>
        </g>
        <g>
          <path d="M151.86,16.23c-1.96,0-3.64-.75-3.64-1.63l1.74,68.3s0,.02,0,.02c0,.4.73.73,1.63.73.9,0,1.63-.33,1.63-.73l2.24-68.36c0,.88-1.63,1.66-3.59,1.66Z"/>
          <path class="cls-2" d="M151.86,16.23c1.96,0,3.59-.78,3.59-1.66l.33-12.81c0,.97-1.75,1.76-3.91,1.75-2.16,0-3.91-.79-3.91-1.76l.26,12.85c0,.88,1.67,1.63,3.64,1.63Z"/>
          <path class="cls-2" d="M151.84,19.24c-1.73,0-3.24-.58-3.58-1.32l.02,1.66c0,.87,1.65,1.6,3.58,1.6,1.93,0,3.53-.77,3.53-1.63l.03-1.78c-.21.8-1.75,1.48-3.58,1.48Z"/>
          <polygon class="cls-1" points="155.79 1.76 155.79 1.76 155.79 1.76 155.79 1.76"/>
          <path d="M151.88,0c-2.16,0-3.91.78-3.91,1.75,0,.97,1.75,1.76,3.91,1.76,2.16,0,3.91-.78,3.91-1.75,0,0,0,0,0,0,0-.97-1.75-1.76-3.91-1.76Z"/>
        </g>
      </g>
      <path d="M7.73,127.08c-2.41-1.48-4.31-3.52-5.68-6.13-1.37-2.6-2.06-5.53-2.06-8.79s.69-6.19,2.06-8.79c1.37-2.6,3.26-4.64,5.68-6.13,2.41-1.48,5.13-2.22,8.13-2.22,2.64,0,5.02.53,7.12,1.6,2.1,1.07,3.8,2.54,5.11,4.4,1.31,1.87,2.17,3.96,2.58,6.29h-6.7c-.36-1.6-1.27-2.94-2.71-4-1.44-1.07-3.2-1.6-5.26-1.6-1.77,0-3.37.45-4.8,1.34-1.43.89-2.55,2.14-3.37,3.72-.81,1.59-1.22,3.38-1.22,5.38s.41,3.76,1.22,5.37c.81,1.6,1.93,2.85,3.37,3.74,1.43.89,3.03,1.34,4.8,1.34,1.36,0,2.64-.29,3.84-.88,1.2-.59,2.2-1.35,2.98-2.28.79-.93,1.27-1.89,1.44-2.88h6.7c-.32,2.22-1.15,4.3-2.51,6.25-1.36,1.95-3.14,3.52-5.33,4.7-2.2,1.19-4.62,1.78-7.26,1.78-3.01,0-5.72-.74-8.13-2.22Z"/>
      <path d="M51.5,122.18h-11.5l-2.07,6.33h-6.84l11.5-32.63h6.88l11.5,32.63h-7.39l-2.07-6.33ZM49.46,115.85l-3.71-11.37-3.71,11.37h7.43Z"/>
      <path d="M70.57,95.87v26.18h14.81v6.45h-21.44v-32.63h6.62Z"/>
      <path d="M88.73,95.87h22.06v6.33h-15.43v6.65h14.16v6.33h-14.16v7.01h15.76v6.33h-22.38v-32.63Z"/>
      <path d="M115.56,95.87h5.53l14.81,19.62v-20.02h6.62v32.63h-5.53l-14.81-19.62v20.02h-6.62v-32.63Z"/>
      <path d="M202.34,122.18h-11.5l-2.07,6.33h-6.84l11.5-32.63h6.88l11.5,32.63h-7.39l-2.07-6.33ZM200.3,115.85l-3.71-11.37-3.71,11.37h7.42Z"/>
      <path d="M232.44,128.5l-5.75-10.29h-5.28v10.29h-6.62v-32.63h11.94c2.48,0,4.61.46,6.41,1.38,1.8.92,3.17,2.22,4.11,3.9.95,1.68,1.42,3.64,1.42,5.89s-.47,4.2-1.4,5.86c-.93,1.67-2.28,2.96-4.02,3.86l6.88,11.73h-7.68ZM221.41,111.77h5.02c1.77,0,3.15-.41,4.13-1.22.98-.81,1.47-1.98,1.47-3.5s-.49-2.69-1.47-3.5c-.98-.81-2.36-1.22-4.13-1.22h-5.02v9.45Z"/>
      <g>
        <g>
          <rect x="153.35" y="111.25" width="5.59" height="2.85" rx="1.4" ry="1.4"/>
          <rect x="160.67" y="111.25" width="5.59" height="2.85" rx="1.4" ry="1.4"/>
          <rect x="168" y="111.25" width="5.59" height="2.85" rx="1.4" ry="1.4"/>
          <rect x="153.35" y="116.03" width="5.59" height="2.85" rx="1.4" ry="1.4"/>
          <rect x="160.67" y="116.03" width="5.59" height="2.85" rx="1.4" ry="1.4"/>
          <rect x="168" y="116.03" width="5.59" height="2.85" rx="1.4" ry="1.4"/>
          <rect x="153.35" y="120.8" width="5.59" height="2.85" rx="1.4" ry="1.4"/>
          <rect x="160.67" y="120.8" width="5.59" height="2.85" rx="1.4" ry="1.4"/>
          <rect x="168" y="120.8" width="5.59" height="2.85" rx="1.4" ry="1.4"/>
        </g>
        <path d="M175.95,99.06h-2.2v-1.67c0-1.06-.9-1.91-2.01-1.91s-2.01.86-2.01,1.91v1.67h-4.25v-1.67c0-1.06-.9-1.91-2.01-1.91s-2.01.86-2.01,1.91v1.67h-4.25v-1.67c0-1.06-.9-1.91-2.01-1.91s-2.01.86-2.01,1.91v1.67h-2.2c-1.83,0-3.31,1.42-3.31,3.16v23.84c0,1.35,1.16,2.45,2.58,2.45h26.43c1.42,0,2.58-1.1,2.58-2.45v-23.84c0-1.74-1.49-3.16-3.31-3.16ZM176.96,108.6v17.46c0,.14-.12.25-.26.25h-26.46c-.14,0-.26-.11-.26-.25v-17.46h26.98Z"/>
      </g>
      <g>
        <path class="cls-3" d="M99.18,80.51l.86-.63c-.34-.44-.59-.91-.8-1.4h0c.21.49.47.96.8,1.4l-.86.63Z"/>
        <polygon class="cls-3" points="86 80.51 86 80.51 86.43 80.19 86 80.51"/>
        <path class="cls-3" d="M100.51,2.57c-.14.23-.29.46-.47.68-.27.35-.49.72-.68,1.1h0c.19-.38.41-.76.68-1.1.17-.22.32-.45.47-.68Z"/>
        <path class="cls-4" d="M99.02,77.98c.06.17.14.34.22.5h0c-.07-.17-.16-.33-.22-.5Z"/>
        <path class="cls-4" d="M101.23,30.58c-.26-.78-.66-1.52-1.18-2.2-.45-.59-.79-1.23-1.02-1.9.23.67.57,1.32,1.02,1.9.53.68.92,1.42,1.18,2.2Z"/>
        <path class="cls-4" d="M101.23,47.75c-.26-.78-.66-1.52-1.18-2.2-.45-.59-.79-1.23-1.02-1.9.23.67.57,1.32,1.02,1.9.53.68.92,1.42,1.18,2.2Z"/>
        <path class="cls-4" d="M101.23,35.39c-.26.78-.66,1.52-1.18,2.2-.45.59-.79,1.23-1.02,1.9.23-.67.57-1.32,1.02-1.9.53-.68.92-1.42,1.18-2.2Z"/>
        <path class="cls-4" d="M101.62,15.82c0,1.63-.53,3.25-1.58,4.61-.45.59-.79,1.23-1.02,1.9.23-.67.57-1.32,1.02-1.9,1.05-1.36,1.58-2.98,1.58-4.61Z"/>
        <path class="cls-4" d="M101.23,13.41c-.26-.78-.66-1.52-1.18-2.2-.45-.59-.79-1.23-1.02-1.9.23.67.57,1.32,1.02,1.9.53.68.92,1.42,1.18,2.2Z"/>
        <path class="cls-4" d="M99.18,46.17c-.53-.68-.92-1.42-1.18-2.2.26.78.66,1.52,1.18,2.2.91,1.17,1.36,2.57,1.36,3.98,0-1.4-.45-2.81-1.36-3.98Z"/>
        <path class="cls-4" d="M99.02,5.16c.09-.27.22-.54.34-.8h0c-.13.26-.25.52-.34.8Z"/>
        <path class="cls-4" d="M86,46.17c-.53-.68-.92-1.42-1.18-2.2.26.78.66,1.52,1.18,2.2.91,1.17,1.36,2.57,1.36,3.98,0-1.4-.45-2.81-1.36-3.98Z"/>
        <path class="cls-4" d="M92.59,46.17c-.53-.68-.92-1.42-1.18-2.2.26.78.66,1.52,1.18,2.2.91,1.17,1.36,2.57,1.36,3.98,0-1.4-.45-2.81-1.36-3.98Z"/>
        <path class="cls-4" d="M94.14,19.36c.59-1.11.89-2.32.89-3.54,0,1.22-.3,2.44-.89,3.54Z"/>
        <path class="cls-4" d="M101.23,69.72c-.26.78-.66,1.52-1.18,2.2-.45.59-.79,1.23-1.02,1.9.23-.67.57-1.32,1.02-1.9.53-.68.92-1.42,1.18-2.2Z"/>
        <path class="cls-4" d="M132.13,46.17c-.3-.38-.55-.78-.76-1.2.21.42.47.82.76,1.2.91,1.17,1.36,2.57,1.36,3.98,0-1.4-.45-2.81-1.36-3.98Z"/>
        <path class="cls-4" d="M101.23,52.55c-.26.78-.66,1.52-1.18,2.2-.45.59-.79,1.23-1.02,1.9.23-.67.57-1.32,1.02-1.9.53-.68.92-1.42,1.18-2.2Z"/>
        <path class="cls-4" d="M131.37,44.97c-.21-.42-.38-.85-.51-1.29.13.44.3.88.51,1.29Z"/>
        <path class="cls-4" d="M131.63,41.57c0-.7.11-1.4.34-2.08-.23.67-.34,1.37-.34,2.08Z"/>
        <path class="cls-4" d="M125.54,46.17c-.53-.68-.92-1.42-1.18-2.2.26.78.66,1.52,1.18,2.2.91,1.17,1.36,2.57,1.36,3.98,0-1.4-.45-2.81-1.36-3.98Z"/>
        <path class="cls-4" d="M127.76,17.63c.15-.6.22-1.2.22-1.81,0,.61-.07,1.22-.22,1.81Z"/>
        <path class="cls-4" d="M138.27,44.97c-.21-.42-.38-.85-.51-1.29.13.44.3.88.51,1.29Z"/>
        <path class="cls-4" d="M139.03,46.17c-.3-.38-.55-.78-.76-1.2.21.42.47.82.76,1.2.91,1.17,1.36,2.57,1.36,3.98,0-1.4-.45-2.81-1.36-3.98Z"/>
        <path class="cls-4" d="M133.49,67.32c0-.7-.11-1.4-.34-2.08.23.67.34,1.37.34,2.08Z"/>
        <path class="cls-4" d="M140.39,67.32c0-.7-.11-1.4-.34-2.08.23.67.34,1.37.34,2.08Z"/>
        <path class="cls-4" d="M140.58,19.36c.59-1.11.89-2.32.89-3.54,0,1.22-.3,2.44-.89,3.54Z"/>
        <path class="cls-4" d="M138.53,41.57c0-.7.11-1.4.34-2.08-.23.67-.34,1.37-.34,2.08Z"/>
        <path class="cls-4" d="M133.69,19.36c.59-1.11.89-2.32.89-3.54,0,1.22-.3,2.44-.89,3.54Z"/>
        <path class="cls-4" d="M105.77,46.17c-.53-.68-.92-1.42-1.18-2.2.26.78.66,1.52,1.18,2.2.91,1.17,1.36,2.57,1.36,3.98,0-1.4-.45-2.81-1.36-3.98Z"/>
        <path class="cls-4" d="M112.36,46.17c-.53-.68-.92-1.42-1.18-2.2.26.78.66,1.52,1.18,2.2.91,1.17,1.36,2.57,1.36,3.98,0-1.4-.45-2.81-1.36-3.98Z"/>
        <path class="cls-4" d="M113.91,19.36c.59-1.11.89-2.32.89-3.54,0,1.22-.3,2.44-.89,3.54Z"/>
        <path class="cls-4" d="M107.99,17.63c.15-.6.22-1.2.22-1.81,0,.61-.07,1.22-.22,1.81Z"/>
        <path class="cls-4" d="M101.23,64.91c-.26-.78-.66-1.52-1.18-2.2-.45-.59-.79-1.23-1.02-1.9.23.67.57,1.32,1.02,1.9.53.68.92,1.42,1.18,2.2Z"/>
        <path class="cls-4" d="M118.95,46.17c-.53-.68-.92-1.42-1.18-2.2.26.78.66,1.52,1.18,2.2.91,1.17,1.36,2.57,1.36,3.98,0-1.4-.45-2.81-1.36-3.98Z"/>
        <path class="cls-4" d="M121.17,17.63c.15-.6.22-1.2.22-1.81,0,.61-.07,1.22-.22,1.81Z"/>
        <path d="M94.52,61.92c-1.46-1.88-1.46-4.5,0-6.37,2.46-3.18,2.46-7.62,0-10.79-1.46-1.88-1.46-4.5,0-6.37,2.46-3.18,2.46-7.62,0-10.79-1.46-1.88-1.46-4.5,0-6.37,2.46-3.18,2.46-7.62,0-10.79-.75-.97-1.11-2.14-1.08-3.3-1.2.68-2.36,1.43-3.48,2.23.29,1.16.79,2.28,1.56,3.28,1.46,1.88,1.46,4.5,0,6.37-2.46,3.18-2.46,7.62,0,10.79,1.46,1.88,1.46,4.5,0,6.37-2.46,3.18-2.46,7.62,0,10.79,1.46,1.88,1.46,4.5,0,6.37-2.46,3.18-2.46,7.62,0,10.79,1.46,1.88,1.46,4.5,0,6.37-.72.93-1.21,1.98-1.51,3.07,1.1.79,2.25,1.52,3.43,2.19.03-1.08.38-2.15,1.08-3.05,2.46-3.18,2.46-7.62,0-10.79ZM95.03,15.82c0,1.22-.3,2.44-.89,3.54.59-1.11.89-2.32.89-3.54ZM92.59,46.17c-.53-.68-.92-1.42-1.18-2.2.26.78.66,1.52,1.18,2.2.91,1.17,1.36,2.57,1.36,3.98,0-1.4-.45-2.81-1.36-3.98Z"/>
        <path class="cls-4" d="M94.52,61.92c-1.46-1.88-1.46-4.5,0-6.37,2.46-3.18,2.46-7.62,0-10.79-1.46-1.88-1.46-4.5,0-6.37,2.46-3.18,2.46-7.62,0-10.79-1.46-1.88-1.46-4.5,0-6.37,2.46-3.18,2.46-7.62,0-10.79-.75-.97-1.11-2.14-1.08-3.3-1.2.68-2.36,1.43-3.48,2.23.29,1.16.79,2.28,1.56,3.28,1.46,1.88,1.46,4.5,0,6.37-2.46,3.18-2.46,7.62,0,10.79,1.46,1.88,1.46,4.5,0,6.37-2.46,3.18-2.46,7.62,0,10.79,1.46,1.88,1.46,4.5,0,6.37-2.46,3.18-2.46,7.62,0,10.79,1.46,1.88,1.46,4.5,0,6.37-.72.93-1.21,1.98-1.51,3.07,1.1.79,2.25,1.52,3.43,2.19.03-1.08.38-2.15,1.08-3.05,2.46-3.18,2.46-7.62,0-10.79ZM95.03,15.82c0,1.22-.3,2.44-.89,3.54.59-1.11.89-2.32.89-3.54ZM92.59,46.17c-.53-.68-.92-1.42-1.18-2.2.26.78.66,1.52,1.18,2.2.91,1.17,1.36,2.57,1.36,3.98,0-1.4-.45-2.81-1.36-3.98Z"/>
        <path d="M101.11,72.71c2.46-3.18,2.46-7.62,0-10.79-1.46-1.88-1.46-4.5,0-6.37,2.46-3.18,2.46-7.62,0-10.79-1.46-1.88-1.46-4.5,0-6.37,2.46-3.18,2.46-7.62,0-10.79-1.46-1.88-1.46-4.5,0-6.37,2.46-3.18,2.46-7.62,0-10.79-1.46-1.88-1.46-4.5,0-6.37.09-.11.17-.23.26-.35-.68.21-1.34.43-2,.67-.13.26-.25.52-.34.8.09-.27.22-.54.34-.8-1,.37-1.98.78-2.94,1.22-.46,2.42.09,4.99,1.68,7.04,1.46,1.88,1.46,4.5,0,6.37-2.46,3.18-2.46,7.62,0,10.79,1.46,1.88,1.46,4.5,0,6.37-2.46,3.18-2.46,7.62,0,10.79,1.46,1.88,1.46,4.5,0,6.37-2.46,3.18-2.46,7.62,0,10.79,1.46,1.88,1.46,4.5,0,6.37-1.53,1.97-2.11,4.43-1.74,6.78.94.43,1.89.84,2.87,1.2-.07-.17-.16-.33-.22-.5.06.17.14.34.22.5.63.23,1.26.45,1.91.65l-.03-.04c-1.46-1.88-1.46-4.5,0-6.37ZM99.02,9.31c.23.67.57,1.32,1.02,1.9.53.68.92,1.42,1.18,2.2-.26-.78-.66-1.52-1.18-2.2-.45-.59-.79-1.23-1.02-1.9ZM100.04,20.42c1.05-1.36,1.58-2.98,1.58-4.61,0,1.63-.53,3.25-1.58,4.61-.45.59-.79,1.23-1.02,1.9.23-.67.57-1.32,1.02-1.9ZM99.02,26.48c.23.67.57,1.32,1.02,1.9.53.68.92,1.42,1.18,2.2-.26-.78-.66-1.52-1.18-2.2-.45-.59-.79-1.23-1.02-1.9ZM100.04,37.59c.53-.68.92-1.42,1.18-2.2-.26.78-.66,1.52-1.18,2.2-.45.59-.79,1.23-1.02,1.9.23-.67.57-1.32,1.02-1.9ZM100.04,45.54c.53.68.92,1.42,1.18,2.2-.26-.78-.66-1.52-1.18-2.2-.45-.59-.79-1.23-1.02-1.9.23.67.57,1.32,1.02,1.9ZM99.18,46.17c-.53-.68-.92-1.42-1.18-2.2.26.78.66,1.52,1.18,2.2.91,1.17,1.36,2.57,1.36,3.98,0-1.4-.45-2.81-1.36-3.98ZM100.04,54.76c.53-.68.92-1.42,1.18-2.2-.26.78-.66,1.52-1.18,2.2-.45.59-.79,1.23-1.02,1.9.23-.67.57-1.32,1.02-1.9ZM99.02,60.81c.23.67.57,1.32,1.02,1.9.53.68.92,1.42,1.18,2.2-.26-.78-.66-1.52-1.18-2.2-.45-.59-.79-1.23-1.02-1.9ZM100.04,71.92c.53-.68.92-1.42,1.18-2.2-.26.78-.66,1.52-1.18,2.2-.45.59-.79,1.23-1.02,1.9.23-.67.57-1.32,1.02-1.9Z"/>
        <path class="cls-4" d="M101.11,72.71c2.46-3.18,2.46-7.62,0-10.79-1.46-1.88-1.46-4.5,0-6.37,2.46-3.18,2.46-7.62,0-10.79-1.46-1.88-1.46-4.5,0-6.37,2.46-3.18,2.46-7.62,0-10.79-1.46-1.88-1.46-4.5,0-6.37,2.46-3.18,2.46-7.62,0-10.79-1.46-1.88-1.46-4.5,0-6.37.09-.11.17-.23.26-.35-.68.21-1.34.43-2,.67-.13.26-.25.52-.34.8.09-.27.22-.54.34-.8-1,.37-1.98.78-2.94,1.22-.46,2.42.09,4.99,1.68,7.04,1.46,1.88,1.46,4.5,0,6.37-2.46,3.18-2.46,7.62,0,10.79,1.46,1.88,1.46,4.5,0,6.37-2.46,3.18-2.46,7.62,0,10.79,1.46,1.88,1.46,4.5,0,6.37-2.46,3.18-2.46,7.62,0,10.79,1.46,1.88,1.46,4.5,0,6.37-1.53,1.97-2.11,4.43-1.74,6.78.94.43,1.89.84,2.87,1.2-.07-.17-.16-.33-.22-.5.06.17.14.34.22.5.63.23,1.26.45,1.91.65l-.03-.04c-1.46-1.88-1.46-4.5,0-6.37ZM99.02,9.31c.23.67.57,1.32,1.02,1.9.53.68.92,1.42,1.18,2.2-.26-.78-.66-1.52-1.18-2.2-.45-.59-.79-1.23-1.02-1.9ZM100.04,20.42c1.05-1.36,1.58-2.98,1.58-4.61,0,1.63-.53,3.25-1.58,4.61-.45.59-.79,1.23-1.02,1.9.23-.67.57-1.32,1.02-1.9ZM99.02,26.48c.23.67.57,1.32,1.02,1.9.53.68.92,1.42,1.18,2.2-.26-.78-.66-1.52-1.18-2.2-.45-.59-.79-1.23-1.02-1.9ZM100.04,37.59c.53-.68.92-1.42,1.18-2.2-.26.78-.66,1.52-1.18,2.2-.45.59-.79,1.23-1.02,1.9.23-.67.57-1.32,1.02-1.9ZM100.04,45.54c.53.68.92,1.42,1.18,2.2-.26-.78-.66-1.52-1.18-2.2-.45-.59-.79-1.23-1.02-1.9.23.67.57,1.32,1.02,1.9ZM99.18,46.17c-.53-.68-.92-1.42-1.18-2.2.26.78.66,1.52,1.18,2.2.91,1.17,1.36,2.57,1.36,3.98,0-1.4-.45-2.81-1.36-3.98ZM100.04,54.76c.53-.68.92-1.42,1.18-2.2-.26.78-.66,1.52-1.18,2.2-.45.59-.79,1.23-1.02,1.9.23-.67.57-1.32,1.02-1.9ZM99.02,60.81c.23.67.57,1.32,1.02,1.9.53.68.92,1.42,1.18,2.2-.26-.78-.66-1.52-1.18-2.2-.45-.59-.79-1.23-1.02-1.9ZM100.04,71.92c.53-.68.92-1.42,1.18-2.2-.26.78-.66,1.52-1.18,2.2-.45.59-.79,1.23-1.02,1.9.23-.67.57-1.32,1.02-1.9Z"/>
        <path d="M87.93,61.92c-1.46-1.88-1.46-4.5,0-6.37,2.46-3.18,2.46-7.62,0-10.79-1.46-1.88-1.46-4.5,0-6.37,2.46-3.18,2.46-7.62,0-10.79-1.46-1.88-1.46-4.5,0-6.37,2.39-3.08,2.44-7.32.21-10.47-.98.79-1.91,1.63-2.81,2.5,1.03,1.81.91,4.08-.4,5.76-2.46,3.18-2.46,7.62,0,10.79,1.46,1.88,1.46,4.5,0,6.37-2.46,3.18-2.46,7.62,0,10.79,1.46,1.88,1.46,4.5,0,6.37-2.46,3.18-2.46,7.62,0,10.79,1.27,1.63,1.43,3.83.49,5.61.9.88,1.84,1.71,2.82,2.5,2.12-3.13,2.03-7.29-.31-10.31ZM86,46.17c-.53-.68-.92-1.42-1.18-2.2.26.78.66,1.52,1.18,2.2.91,1.17,1.36,2.57,1.36,3.98,0-1.4-.45-2.81-1.36-3.98Z"/>
        <path class="cls-4" d="M87.93,61.92c-1.46-1.88-1.46-4.5,0-6.37,2.46-3.18,2.46-7.62,0-10.79-1.46-1.88-1.46-4.5,0-6.37,2.46-3.18,2.46-7.62,0-10.79-1.46-1.88-1.46-4.5,0-6.37,2.39-3.08,2.44-7.32.21-10.47-.98.79-1.91,1.63-2.81,2.5,1.03,1.81.91,4.08-.4,5.76-2.46,3.18-2.46,7.62,0,10.79,1.46,1.88,1.46,4.5,0,6.37-2.46,3.18-2.46,7.62,0,10.79,1.46,1.88,1.46,4.5,0,6.37-2.46,3.18-2.46,7.62,0,10.79,1.27,1.63,1.43,3.83.49,5.61.9.88,1.84,1.71,2.82,2.5,2.12-3.13,2.03-7.29-.31-10.31ZM86,46.17c-.53-.68-.92-1.42-1.18-2.2.26.78.66,1.52,1.18,2.2.91,1.17,1.36,2.57,1.36,3.98,0-1.4-.45-2.81-1.36-3.98Z"/>
        <path d="M107.7,79.09c-1.46-1.88-1.46-4.5,0-6.37,2.46-3.18,2.46-7.62,0-10.79-1.46-1.88-1.46-4.5,0-6.37,2.46-3.18,2.46-7.62,0-10.79-1.46-1.88-1.46-4.5,0-6.37,2.46-3.18,2.46-7.62,0-10.79-1.46-1.88-1.46-4.5,0-6.37,2.46-3.18,2.46-7.62,0-10.79-1.46-1.88-1.46-4.5,0-6.37.18-.23.36-.49.55-.8l.66-1.08c-1.69.17-3.35.46-4.97.84-1.66,3.01-1.42,6.81.76,9.62,1.46,1.88,1.46,4.5,0,6.37-2.46,3.18-2.46,7.62,0,10.79,1.46,1.88,1.46,4.5,0,6.37-2.46,3.18-2.46,7.62,0,10.79,1.46,1.88,1.46,4.5,0,6.37-2.46,3.18-2.46,7.62,0,10.79,1.46,1.88,1.46,4.5,0,6.37-2.11,2.72-2.4,6.36-.9,9.35,1.34.32,2.7.56,4.09.74l.63-.46-.81-1.05ZM108.21,15.82c0,.61-.07,1.22-.22,1.81.15-.6.22-1.2.22-1.81ZM105.77,46.17c-.53-.68-.92-1.42-1.18-2.2.26.78.66,1.52,1.18,2.2.91,1.17,1.36,2.57,1.36,3.98,0-1.4-.45-2.81-1.36-3.98Z"/>
        <path class="cls-4" d="M107.7,79.09c-1.46-1.88-1.46-4.5,0-6.37,2.46-3.18,2.46-7.62,0-10.79-1.46-1.88-1.46-4.5,0-6.37,2.46-3.18,2.46-7.62,0-10.79-1.46-1.88-1.46-4.5,0-6.37,2.46-3.18,2.46-7.62,0-10.79-1.46-1.88-1.46-4.5,0-6.37,2.46-3.18,2.46-7.62,0-10.79-1.46-1.88-1.46-4.5,0-6.37.18-.23.36-.49.55-.8l.66-1.08c-1.69.17-3.35.46-4.97.84-1.66,3.01-1.42,6.81.76,9.62,1.46,1.88,1.46,4.5,0,6.37-2.46,3.18-2.46,7.62,0,10.79,1.46,1.88,1.46,4.5,0,6.37-2.46,3.18-2.46,7.62,0,10.79,1.46,1.88,1.46,4.5,0,6.37-2.46,3.18-2.46,7.62,0,10.79,1.46,1.88,1.46,4.5,0,6.37-2.11,2.72-2.4,6.36-.9,9.35,1.34.32,2.7.56,4.09.74l.63-.46-.81-1.05ZM108.21,15.82c0,.61-.07,1.22-.22,1.81.15-.6.22-1.2.22-1.81ZM105.77,46.17c-.53-.68-.92-1.42-1.18-2.2.26.78.66,1.52,1.18,2.2.91,1.17,1.36,2.57,1.36,3.98,0-1.4-.45-2.81-1.36-3.98Z"/>
        <path d="M114.29,79.09c-1.46-1.88-1.46-4.5,0-6.37,2.46-3.18,2.46-7.62,0-10.79-1.46-1.88-1.46-4.5,0-6.37,2.46-3.18,2.46-7.62,0-10.79-1.46-1.88-1.46-4.5,0-6.37,2.46-3.18,2.46-7.62,0-10.79-1.46-1.88-1.46-4.5,0-6.37,2.46-3.18,2.46-7.62,0-10.79-1.46-1.88-1.46-4.5,0-6.37.18-.23.36-.49.55-.8l.73-1.19c-.87-.06-1.74-.1-2.62-.1-.59,0-1.18.02-1.77.04-2.34,3.13-2.32,7.49.11,10.62,1.46,1.88,1.46,4.5,0,6.37-2.46,3.18-2.46,7.62,0,10.79,1.46,1.88,1.46,4.5,0,6.37-2.46,3.18-2.46,7.62,0,10.79,1.46,1.88,1.46,4.5,0,6.37-2.46,3.18-2.46,7.62,0,10.79,1.46,1.88,1.46,4.5,0,6.37-2.36,3.04-2.43,7.23-.27,10.37.64.03,1.28.05,1.93.05.38,0,.75-.02,1.12-.03l1.04-.76-.81-1.05ZM114.8,15.82c0,1.22-.3,2.44-.89,3.54.59-1.11.89-2.32.89-3.54ZM112.36,46.17c-.53-.68-.92-1.42-1.18-2.2.26.78.66,1.52,1.18,2.2.91,1.17,1.36,2.57,1.36,3.98,0-1.4-.45-2.81-1.36-3.98Z"/>
        <path class="cls-4" d="M114.29,79.09c-1.46-1.88-1.46-4.5,0-6.37,2.46-3.18,2.46-7.62,0-10.79-1.46-1.88-1.46-4.5,0-6.37,2.46-3.18,2.46-7.62,0-10.79-1.46-1.88-1.46-4.5,0-6.37,2.46-3.18,2.46-7.62,0-10.79-1.46-1.88-1.46-4.5,0-6.37,2.46-3.18,2.46-7.62,0-10.79-1.46-1.88-1.46-4.5,0-6.37.18-.23.36-.49.55-.8l.73-1.19c-.87-.06-1.74-.1-2.62-.1-.59,0-1.18.02-1.77.04-2.34,3.13-2.32,7.49.11,10.62,1.46,1.88,1.46,4.5,0,6.37-2.46,3.18-2.46,7.62,0,10.79,1.46,1.88,1.46,4.5,0,6.37-2.46,3.18-2.46,7.62,0,10.79,1.46,1.88,1.46,4.5,0,6.37-2.46,3.18-2.46,7.62,0,10.79,1.46,1.88,1.46,4.5,0,6.37-2.36,3.04-2.43,7.23-.27,10.37.64.03,1.28.05,1.93.05.38,0,.75-.02,1.12-.03l1.04-.76-.81-1.05ZM114.8,15.82c0,1.22-.3,2.44-.89,3.54.59-1.11.89-2.32.89-3.54ZM112.36,46.17c-.53-.68-.92-1.42-1.18-2.2.26.78.66,1.52,1.18,2.2.91,1.17,1.36,2.57,1.36,3.98,0-1.4-.45-2.81-1.36-3.98Z"/>
        <path d="M120.88,72.71c2.46-3.18,2.46-7.62,0-10.79-1.46-1.88-1.46-4.5,0-6.37,2.46-3.18,2.46-7.62,0-10.79-1.46-1.88-1.46-4.5,0-6.37,2.46-3.18,2.46-7.62,0-10.79-1.46-1.88-1.46-4.5,0-6.37,2.46-3.18,2.46-7.62,0-10.79-1.46-1.88-1.46-4.5,0-6.37.18-.23.36-.49.55-.8l.19-.31c-1.31-.29-2.65-.52-4.01-.68-2.17,3.11-2.1,7.32.27,10.38,1.46,1.88,1.46,4.5,0,6.37-2.46,3.18-2.46,7.62,0,10.79,1.46,1.88,1.46,4.5,0,6.37-2.46,3.18-2.46,7.62,0,10.79,1.46,1.88,1.46,4.5,0,6.37-2.46,3.18-2.46,7.62,0,10.79,1.46,1.88,1.46,4.5,0,6.37-2.31,2.97-2.43,7.04-.41,10.16,1.39-.16,2.76-.39,4.1-.69l-.68-.88c-1.46-1.88-1.46-4.5,0-6.37ZM121.39,15.82c0,.61-.07,1.22-.22,1.81.15-.6.22-1.2.22-1.81ZM118.95,46.17c-.53-.68-.92-1.42-1.18-2.2.26.78.66,1.52,1.18,2.2.91,1.17,1.36,2.57,1.36,3.98,0-1.4-.45-2.81-1.36-3.98Z"/>
        <path class="cls-4" d="M120.88,72.71c2.46-3.18,2.46-7.62,0-10.79-1.46-1.88-1.46-4.5,0-6.37,2.46-3.18,2.46-7.62,0-10.79-1.46-1.88-1.46-4.5,0-6.37,2.46-3.18,2.46-7.62,0-10.79-1.46-1.88-1.46-4.5,0-6.37,2.46-3.18,2.46-7.62,0-10.79-1.46-1.88-1.46-4.5,0-6.37.18-.23.36-.49.55-.8l.19-.31c-1.31-.29-2.65-.52-4.01-.68-2.17,3.11-2.1,7.32.27,10.38,1.46,1.88,1.46,4.5,0,6.37-2.46,3.18-2.46,7.62,0,10.79,1.46,1.88,1.46,4.5,0,6.37-2.46,3.18-2.46,7.62,0,10.79,1.46,1.88,1.46,4.5,0,6.37-2.46,3.18-2.46,7.62,0,10.79,1.46,1.88,1.46,4.5,0,6.37-2.31,2.97-2.43,7.04-.41,10.16,1.39-.16,2.76-.39,4.1-.69l-.68-.88c-1.46-1.88-1.46-4.5,0-6.37ZM121.39,15.82c0,.61-.07,1.22-.22,1.81.15-.6.22-1.2.22-1.81ZM118.95,46.17c-.53-.68-.92-1.42-1.18-2.2.26.78.66,1.52,1.18,2.2.91,1.17,1.36,2.57,1.36,3.98,0-1.4-.45-2.81-1.36-3.98Z"/>
        <path d="M127.47,72.71c2.46-3.18,2.46-7.62,0-10.79-1.46-1.88-1.46-4.5,0-6.37,2.46-3.18,2.46-7.62,0-10.79-1.46-1.88-1.46-4.5,0-6.37,2.46-3.18,2.46-7.62,0-10.79-1.46-1.88-1.46-4.5,0-6.37,2.46-3.18,2.46-7.62,0-10.79-1.32-1.7-1.43-4.01-.36-5.82-1.17-.45-2.38-.85-3.6-1.19-1.43,2.94-1.13,6.53.96,9.22,1.46,1.88,1.46,4.5,0,6.37-2.46,3.18-2.46,7.62,0,10.79,1.46,1.88,1.46,4.5,0,6.37-2.46,3.18-2.46,7.62,0,10.79,1.46,1.88,1.46,4.5,0,6.37-2.46,3.18-2.46,7.62,0,10.79,1.46,1.88,1.46,4.5,0,6.37-2.03,2.62-2.36,6.08-1.04,9,1.21-.33,2.4-.72,3.56-1.16-.95-1.78-.79-3.99.48-5.63ZM127.98,15.82c0,.61-.07,1.22-.22,1.81.15-.6.22-1.2.22-1.81ZM125.54,46.17c-.53-.68-.92-1.42-1.18-2.2.26.78.66,1.52,1.18,2.2.91,1.17,1.36,2.57,1.36,3.98,0-1.4-.45-2.81-1.36-3.98Z"/>
        <path class="cls-4" d="M127.47,72.71c2.46-3.18,2.46-7.62,0-10.79-1.46-1.88-1.46-4.5,0-6.37,2.46-3.18,2.46-7.62,0-10.79-1.46-1.88-1.46-4.5,0-6.37,2.46-3.18,2.46-7.62,0-10.79-1.46-1.88-1.46-4.5,0-6.37,2.46-3.18,2.46-7.62,0-10.79-1.32-1.7-1.43-4.01-.36-5.82-1.17-.45-2.38-.85-3.6-1.19-1.43,2.94-1.13,6.53.96,9.22,1.46,1.88,1.46,4.5,0,6.37-2.46,3.18-2.46,7.62,0,10.79,1.46,1.88,1.46,4.5,0,6.37-2.46,3.18-2.46,7.62,0,10.79,1.46,1.88,1.46,4.5,0,6.37-2.46,3.18-2.46,7.62,0,10.79,1.46,1.88,1.46,4.5,0,6.37-2.03,2.62-2.36,6.08-1.04,9,1.21-.33,2.4-.72,3.56-1.16-.95-1.78-.79-3.99.48-5.63ZM127.98,15.82c0,.61-.07,1.22-.22,1.81.15-.6.22-1.2.22-1.81ZM125.54,46.17c-.53-.68-.92-1.42-1.18-2.2.26.78.66,1.52,1.18,2.2.91,1.17,1.36,2.57,1.36,3.98,0-1.4-.45-2.81-1.36-3.98Z"/>
        <path d="M134.06,61.92c-1.46-1.88-1.46-4.5,0-6.37,2.46-3.18,2.46-7.62,0-10.79-1.46-1.88-1.46-4.5,0-6.37,2.46-3.18,2.46-7.62,0-10.79-1.46-1.88-1.46-4.5,0-6.37,2.46-3.18,2.46-7.62,0-10.79-.68-.88-1.03-1.93-1.07-2.99-1.16-.69-2.37-1.31-3.6-1.88-.47,2.42.07,5.01,1.67,7.08,1.46,1.88,1.46,4.5,0,6.37-2.46,3.18-2.46,7.62,0,10.79,1.46,1.88,1.46,4.5,0,6.37-2.46,3.18-2.46,7.62,0,10.79,1.46,1.88,1.46,4.5,0,6.37-2.46,3.18-2.46,7.62,0,10.79,1.46,1.88,1.46,4.5,0,6.37-1.55,2-2.12,4.49-1.72,6.85,1.26-.58,2.49-1.21,3.67-1.92.09-.97.43-1.92,1.05-2.73,2.46-3.18,2.46-7.62,0-10.79ZM134.57,15.82c0,1.22-.3,2.44-.89,3.54.59-1.11.89-2.32.89-3.54ZM131.97,39.49c-.23.67-.34,1.37-.34,2.08,0-.7.11-1.4.34-2.08ZM132.13,46.17c-.3-.38-.55-.78-.76-1.2-.21-.42-.38-.85-.51-1.29.13.44.3.88.51,1.29s.47.82.76,1.2c.91,1.17,1.36,2.57,1.36,3.98,0-1.4-.45-2.81-1.36-3.98ZM133.15,65.24c.23.67.34,1.37.34,2.08,0-.7-.11-1.4-.34-2.08Z"/>
        <path class="cls-4" d="M134.06,61.92c-1.46-1.88-1.46-4.5,0-6.37,2.46-3.18,2.46-7.62,0-10.79-1.46-1.88-1.46-4.5,0-6.37,2.46-3.18,2.46-7.62,0-10.79-1.46-1.88-1.46-4.5,0-6.37,2.46-3.18,2.46-7.62,0-10.79-.68-.88-1.03-1.93-1.07-2.99-1.16-.69-2.37-1.31-3.6-1.88-.47,2.42.07,5.01,1.67,7.08,1.46,1.88,1.46,4.5,0,6.37-2.46,3.18-2.46,7.62,0,10.79,1.46,1.88,1.46,4.5,0,6.37-2.46,3.18-2.46,7.62,0,10.79,1.46,1.88,1.46,4.5,0,6.37-2.46,3.18-2.46,7.62,0,10.79,1.46,1.88,1.46,4.5,0,6.37-1.55,2-2.12,4.49-1.72,6.85,1.26-.58,2.49-1.21,3.67-1.92.09-.97.43-1.92,1.05-2.73,2.46-3.18,2.46-7.62,0-10.79ZM134.57,15.82c0,1.22-.3,2.44-.89,3.54.59-1.11.89-2.32.89-3.54ZM131.97,39.49c-.23.67-.34,1.37-.34,2.08,0-.7.11-1.4.34-2.08ZM132.13,46.17c-.3-.38-.55-.78-.76-1.2-.21-.42-.38-.85-.51-1.29.13.44.3.88.51,1.29s.47.82.76,1.2c.91,1.17,1.36,2.57,1.36,3.98,0-1.4-.45-2.81-1.36-3.98ZM133.15,65.24c.23.67.34,1.37.34,2.08,0-.7-.11-1.4-.34-2.08Z"/>
        <path d="M142.81,67.25c-.01-1.88-.62-3.76-1.84-5.33-1.46-1.88-1.46-4.5,0-6.37,2.46-3.18,2.46-7.62,0-10.79-1.46-1.88-1.46-4.5,0-6.37,2.46-3.18,2.46-7.62,0-10.79-1.46-1.88-1.46-4.5,0-6.37,1.27-1.64,1.88-3.62,1.83-5.59-1.88-2.17-3.99-4.14-6.29-5.86.31,1.01.78,1.99,1.46,2.87,1.46,1.88,1.46,4.5,0,6.37-2.46,3.18-2.46,7.62,0,10.79,1.46,1.88,1.46,4.5,0,6.37-2.46,3.18-2.46,7.62,0,10.79,1.46,1.88,1.46,4.5,0,6.37-2.46,3.18-2.46,7.62,0,10.79,1.46,1.88,1.46,4.5,0,6.37-.61.79-1.07,1.66-1.38,2.57,2.28-1.71,4.36-3.66,6.23-5.82ZM141.47,15.82c0,1.22-.3,2.44-.89,3.54.59-1.11.89-2.32.89-3.54ZM138.87,39.49c-.23.67-.34,1.37-.34,2.08,0-.7.11-1.4.34-2.08ZM139.03,46.17c-.3-.38-.55-.78-.76-1.2-.21-.42-.38-.85-.51-1.29.13.44.3.88.51,1.29s.47.82.76,1.2c.91,1.17,1.36,2.57,1.36,3.98,0-1.4-.45-2.81-1.36-3.98ZM140.05,65.24c.23.67.34,1.37.34,2.08,0-.7-.11-1.4-.34-2.08Z"/>
        <path class="cls-4" d="M142.81,67.25c-.01-1.88-.62-3.76-1.84-5.33-1.46-1.88-1.46-4.5,0-6.37,2.46-3.18,2.46-7.62,0-10.79-1.46-1.88-1.46-4.5,0-6.37,2.46-3.18,2.46-7.62,0-10.79-1.46-1.88-1.46-4.5,0-6.37,1.27-1.64,1.88-3.62,1.83-5.59-1.88-2.17-3.99-4.14-6.29-5.86.31,1.01.78,1.99,1.46,2.87,1.46,1.88,1.46,4.5,0,6.37-2.46,3.18-2.46,7.62,0,10.79,1.46,1.88,1.46,4.5,0,6.37-2.46,3.18-2.46,7.62,0,10.79,1.46,1.88,1.46,4.5,0,6.37-2.46,3.18-2.46,7.62,0,10.79,1.46,1.88,1.46,4.5,0,6.37-.61.79-1.07,1.66-1.38,2.57,2.28-1.71,4.36-3.66,6.23-5.82ZM141.47,15.82c0,1.22-.3,2.44-.89,3.54.59-1.11.89-2.32.89-3.54ZM138.87,39.49c-.23.67-.34,1.37-.34,2.08,0-.7.11-1.4.34-2.08ZM139.03,46.17c-.3-.38-.55-.78-.76-1.2-.21-.42-.38-.85-.51-1.29.13.44.3.88.51,1.29s.47.82.76,1.2c.91,1.17,1.36,2.57,1.36,3.98,0-1.4-.45-2.81-1.36-3.98ZM140.05,65.24c.23.67.34,1.37.34,2.08,0-.7-.11-1.4-.34-2.08Z"/>
      </g>
    </g>
  </g>
</svg>