<svg width="752" height="406" viewBox="0 0 752 406" fill="none" xmlns="http://www.w3.org/2000/svg">
<g opacity="0.05">
<path d="M245.951 205.664V254.264H4.38745V205.664H101.401V154.31H148.937V205.664H245.951ZM74.5643 150.458C54.9924 159.57 34.2932 164.236 12.498 164.455V116.795C32.6335 116.388 50.9528 110.595 67.4244 99.4162C83.9274 88.2371 95.42 73.2377 101.965 54.3554H16.6942V6.97742H233.644V54.3241H153.133C152.006 59.4596 150.159 65.5971 147.528 72.768L243.696 124.749L222.183 166.585L124.324 112.474C110.702 128.663 94.1361 141.346 74.5643 150.458Z" fill="#333333"/>
<path d="M675.088 39.5751C675.088 74.2396 662.406 99.9171 637.041 116.607C611.675 133.329 577.636 141.659 534.86 141.659V97.6938C553.273 97.5059 569.557 95.4392 583.711 91.5563C597.866 87.6733 608.888 82.2247 616.748 75.2417C624.609 68.2587 628.523 60.1797 628.523 50.9421V46.9339H534.86V3.90852H675.088V39.5751ZM751.966 263.47H545.131V152.149H751.966V263.47ZM706.215 220.726V194.892H590.882V220.726H706.215ZM751.966 142.911H706.215V0.839752H751.966V142.911Z" fill="#333333"/>
<path d="M503.986 51.6624C497.849 51.6624 492.588 49.3139 492.588 46.5583L498.036 260.433V260.495C498.036 261.748 500.322 262.781 503.141 262.781C505.959 262.781 508.245 261.748 508.245 260.495L515.26 46.433C515.26 49.1886 510.155 51.6311 504.018 51.6311L503.986 51.6624Z" fill="#333333"/>
<path d="M503.987 51.6622C510.124 51.6622 515.229 49.2198 515.229 46.4641L516.262 6.35096C516.262 9.38841 510.782 11.8622 504.018 11.8309C497.254 11.8309 491.774 9.35709 491.774 6.31964L492.588 46.5581C492.588 49.3137 497.818 51.6622 503.987 51.6622Z" fill="#F4B40F"/>
<path d="M503.891 61.0876C498.473 61.0876 493.745 59.2714 492.68 56.9542L492.743 62.1523C492.743 64.8766 497.91 67.1626 503.953 67.1626C509.997 67.1626 515.007 64.7514 515.007 62.0584L515.101 56.4845C514.444 58.9896 509.621 61.119 503.891 61.119V61.0876Z" fill="#F4B40F"/>
<path d="M504.018 0.839752C497.254 0.839752 491.774 3.28224 491.774 6.31969C491.774 9.35715 497.254 11.8309 504.018 11.8309C510.782 11.8309 516.262 9.38846 516.262 6.35101C516.262 3.31355 510.782 0.839752 504.018 0.839752Z" fill="#333333"/>
<path d="M475.584 51.6624C469.446 51.6624 464.185 49.3139 464.185 46.5583L469.634 260.433V260.495C469.634 261.748 471.92 262.781 474.738 262.781C477.557 262.781 479.843 261.748 479.843 260.495L486.857 46.433C486.857 49.1886 481.753 51.6311 475.615 51.6311L475.584 51.6624Z" fill="#333333"/>
<path d="M475.584 51.6622C481.722 51.6622 486.826 49.2198 486.826 46.4641L487.86 6.35096C487.86 9.38841 482.379 11.8622 475.615 11.8309C468.851 11.8309 463.371 9.35709 463.371 6.31964L464.186 46.5581C464.186 49.3137 469.415 51.6622 475.584 51.6622Z" fill="#F4B40F"/>
<path d="M475.52 61.0876C470.102 61.0876 465.374 59.2714 464.309 56.9542L464.372 62.1523C464.372 64.8766 469.539 67.1626 475.582 67.1626C481.626 67.1626 486.637 64.7514 486.637 62.0584L486.731 56.4845C486.073 58.9896 481.25 61.119 475.52 61.119V61.0876Z" fill="#F4B40F"/>
<path d="M475.647 0.839752C468.883 0.839752 463.403 3.28224 463.403 6.31969C463.403 9.35715 468.883 11.8309 475.647 11.8309C482.411 11.8309 487.891 9.38846 487.891 6.35101C487.891 3.31355 482.411 0.839752 475.647 0.839752Z" fill="#333333"/>
<path d="M24.2378 398.777C16.6909 394.143 10.741 387.755 6.45088 379.582C2.16073 371.44 0 362.265 0 352.057C0 341.849 2.16073 332.674 6.45088 324.532C10.741 316.39 16.6596 310.002 24.2378 305.337C31.7847 300.702 40.3023 298.385 49.6968 298.385C57.964 298.385 65.4169 300.044 71.9931 303.395C78.5692 306.746 83.8928 311.349 87.995 317.173C92.0973 323.029 94.7904 329.574 96.0743 336.87H75.0932C73.9659 331.859 71.1163 327.663 66.6069 324.344C62.0975 320.993 56.5861 319.334 50.1352 319.334C44.5925 319.334 39.5821 320.743 35.1041 323.53C30.626 326.317 27.1187 330.231 24.5509 335.179C22.0144 340.158 20.7305 345.763 20.7305 352.026C20.7305 358.288 22.0144 363.8 24.5509 368.841C27.0874 373.851 30.5947 377.766 35.1041 380.553C39.5821 383.34 44.5925 384.749 50.1352 384.749C54.3941 384.749 58.4024 383.841 62.1602 381.993C65.918 380.146 69.0495 377.766 71.492 374.854C73.9659 371.941 75.469 368.935 76.0014 365.835H96.9824C95.9803 372.787 93.3812 379.3 89.1224 385.406C84.8635 391.513 79.2895 396.429 72.4315 400.124C65.5422 403.85 57.964 405.698 49.6968 405.698C40.271 405.698 31.7847 403.381 24.2378 398.746V398.777Z" fill="#333333"/>
<path d="M161.302 383.434H125.29L118.808 403.256H97.3887L133.401 301.078H154.946L190.958 403.256H167.816L161.334 383.434H161.302ZM154.914 363.612L143.296 328.008L131.679 363.612H154.946H154.914Z" fill="#333333"/>
<path d="M221.02 301.047V383.027H267.398V403.224H200.258V301.047H220.989H221.02Z" fill="#333333"/>
<path d="M277.891 301.047H346.972V320.868H298.653V341.692H342.995V361.514H298.653V383.465H348.005V403.287H277.922V301.109L277.891 301.047Z" fill="#333333"/>
<path d="M361.908 301.047H379.226L425.603 362.485V299.794H446.334V401.972H429.016L382.639 340.534V403.224H361.908V301.047Z" fill="#333333"/>
<path d="M633.66 383.434H597.648L591.166 403.256H569.747L605.759 301.078H627.303L663.316 403.256H640.174L633.692 383.434H633.66ZM627.272 363.612L615.654 328.008L604.036 363.612H627.272Z" fill="#333333"/>
<path d="M727.919 403.224L709.913 371.002H693.378V403.224H672.648V301.047H710.038C717.804 301.047 724.474 302.487 730.111 305.368C735.748 308.249 740.038 312.32 742.981 317.58C745.956 322.841 747.428 328.979 747.428 336.024C747.428 343.07 745.956 349.176 743.044 354.374C740.132 359.604 735.904 363.643 730.455 366.461L752 403.193H727.95L727.919 403.224ZM693.378 350.836H709.099C714.641 350.836 718.963 349.552 722.032 347.016C725.101 344.479 726.635 340.815 726.635 336.056C726.635 331.296 725.101 327.632 722.032 325.096C718.963 322.559 714.641 321.275 709.099 321.275H693.378V350.867V350.836Z" fill="#333333"/>
<path d="M493.372 349.207H484.635C482.214 349.207 480.251 351.17 480.251 353.591V353.748C480.251 356.169 482.214 358.132 484.635 358.132H493.372C495.793 358.132 497.756 356.169 497.756 353.748V353.591C497.756 351.17 495.793 349.207 493.372 349.207Z" fill="#333333"/>
<path d="M516.296 349.207H507.559C505.138 349.207 503.175 351.17 503.175 353.591V353.748C503.175 356.169 505.138 358.132 507.559 358.132H516.296C518.718 358.132 520.68 356.169 520.68 353.748V353.591C520.68 351.17 518.718 349.207 516.296 349.207Z" fill="#333333"/>
<path d="M539.249 349.207H530.512C528.091 349.207 526.128 351.17 526.128 353.591V353.748C526.128 356.169 528.091 358.132 530.512 358.132H539.249C541.671 358.132 543.633 356.169 543.633 353.748V353.591C543.633 351.17 541.671 349.207 539.249 349.207Z" fill="#333333"/>
<path d="M493.372 364.176H484.635C482.214 364.176 480.251 366.138 480.251 368.559V368.716C480.251 371.137 482.214 373.1 484.635 373.1H493.372C495.793 373.1 497.756 371.137 497.756 368.716V368.559C497.756 366.138 495.793 364.176 493.372 364.176Z" fill="#333333"/>
<path d="M516.296 364.176H507.559C505.138 364.176 503.175 366.138 503.175 368.559V368.716C503.175 371.137 505.138 373.1 507.559 373.1H516.296C518.718 373.1 520.68 371.137 520.68 368.716V368.559C520.68 366.138 518.718 364.176 516.296 364.176Z" fill="#333333"/>
<path d="M539.249 364.176H530.512C528.091 364.176 526.128 366.138 526.128 368.559V368.716C526.128 371.137 528.091 373.1 530.512 373.1H539.249C541.671 373.1 543.633 371.137 543.633 368.716V368.559C543.633 366.138 541.671 364.176 539.249 364.176Z" fill="#333333"/>
<path d="M493.372 379.112H484.635C482.214 379.112 480.251 381.075 480.251 383.496V383.653C480.251 386.074 482.214 388.037 484.635 388.037H493.372C495.793 388.037 497.756 386.074 497.756 383.653V383.496C497.756 381.075 495.793 379.112 493.372 379.112Z" fill="#333333"/>
<path d="M516.296 379.112H507.559C505.138 379.112 503.175 381.075 503.175 383.496V383.653C503.175 386.074 505.138 388.037 507.559 388.037H516.296C518.718 388.037 520.68 386.074 520.68 383.653V383.496C520.68 381.075 518.718 379.112 516.296 379.112Z" fill="#333333"/>
<path d="M539.249 379.112H530.512C528.091 379.112 526.128 381.075 526.128 383.496V383.653C526.128 386.074 528.091 388.037 530.512 388.037H539.249C541.671 388.037 543.633 386.074 543.633 383.653V383.496C543.633 381.075 541.671 379.112 539.249 379.112Z" fill="#333333"/>
<path d="M551.022 311.036H544.132V305.806C544.132 302.487 541.314 299.825 537.838 299.825C534.362 299.825 531.544 302.518 531.544 305.806V311.036H518.235V305.806C518.235 302.487 515.417 299.825 511.941 299.825C508.465 299.825 505.646 302.518 505.646 305.806V311.036H492.338V305.806C492.338 302.487 489.519 299.825 486.043 299.825C482.567 299.825 479.749 302.518 479.749 305.806V311.036H472.86C467.129 311.036 462.494 315.482 462.494 320.931V395.583C462.494 399.811 466.127 403.255 470.574 403.255H553.339C557.786 403.255 561.418 399.811 561.418 395.583V320.931C561.418 315.482 556.752 311.036 551.053 311.036H551.022ZM554.185 340.909V395.583C554.185 396.022 553.809 396.366 553.37 396.366H470.511C470.073 396.366 469.697 396.022 469.697 395.583V340.909H554.185Z" fill="#333333"/>
<path opacity="0.23" d="M310.115 245.026C310.303 245.558 310.554 246.091 310.804 246.592C310.585 246.059 310.303 245.558 310.115 245.026Z" fill="#333333"/>
<path opacity="0.23" d="M317.034 96.5979C316.219 94.1554 314.967 91.8382 313.338 89.7089C311.929 87.8613 310.865 85.8573 310.144 83.7592C310.865 85.8573 311.929 87.8927 313.338 89.7089C314.998 91.8382 316.219 94.1554 317.034 96.5979Z" fill="#333333"/>
<path opacity="0.23" d="M317.034 150.364C316.219 147.922 314.967 145.604 313.338 143.475C311.929 141.628 310.865 139.623 310.144 137.525C310.865 139.623 311.929 141.659 313.338 143.475C314.998 145.604 316.219 147.922 317.034 150.364Z" fill="#333333"/>
<path opacity="0.23" d="M317.034 111.66C316.219 114.102 314.967 116.419 313.338 118.549C311.929 120.396 310.865 122.4 310.144 124.498C310.865 122.4 311.929 120.365 313.338 118.549C314.998 116.419 316.219 114.102 317.034 111.66Z" fill="#333333"/>
<path opacity="0.23" d="M313.309 64.8141C311.9 66.6617 310.835 68.6658 310.115 70.7638C310.835 68.6658 311.9 66.6304 313.309 64.8141Z" fill="#333333"/>
<path opacity="0.23" d="M317.034 42.8317C316.219 40.3892 314.967 38.072 313.338 35.9426C311.929 34.0951 310.865 32.091 310.144 29.993C310.865 32.091 311.929 34.1264 313.338 35.9426C314.998 38.072 316.219 40.3892 317.034 42.8317Z" fill="#333333"/>
<path opacity="0.23" d="M310.613 145.416C308.953 143.287 307.732 140.97 306.918 138.527C307.732 140.97 308.985 143.287 310.613 145.416C313.463 149.08 314.872 153.464 314.872 157.879C314.872 153.495 313.463 149.08 310.613 145.416Z" fill="#333333"/>
<path opacity="0.23" d="M310.115 16.998C310.397 16.1525 310.804 15.3071 311.18 14.4929C310.773 15.3071 310.397 16.1212 310.115 16.998Z" fill="#333333"/>
<path opacity="0.23" d="M269.34 145.416C267.68 143.287 266.459 140.97 265.645 138.527C266.459 140.97 267.711 143.287 269.34 145.416C272.189 149.08 273.599 153.464 273.599 157.879C273.599 153.495 272.189 149.08 269.34 145.416Z" fill="#333333"/>
<path opacity="0.23" d="M289.98 145.416C288.32 143.287 287.099 140.97 286.285 138.527C287.099 140.97 288.352 143.287 289.98 145.416C292.83 149.08 294.239 153.464 294.239 157.879C294.239 153.495 292.83 149.08 289.98 145.416Z" fill="#333333"/>
<path opacity="0.23" d="M294.834 61.4636C296.682 57.9877 297.621 54.1987 297.621 50.3784C297.621 54.1987 296.682 58.019 294.834 61.4636Z" fill="#333333"/>
<path opacity="0.23" d="M317.034 219.161C316.219 221.603 314.967 223.92 313.338 226.05C311.929 227.897 310.865 229.901 310.144 231.999C310.865 229.901 311.929 227.866 313.338 226.05C314.998 223.92 316.219 221.603 317.034 219.161Z" fill="#333333"/>
<path opacity="0.23" d="M413.8 145.416C412.861 144.226 412.078 142.974 411.42 141.658C412.078 142.974 412.892 144.226 413.8 145.416C416.65 149.08 418.059 153.464 418.059 157.879C418.059 153.495 416.65 149.08 413.8 145.416Z" fill="#333333"/>
<path opacity="0.23" d="M317.034 165.395C316.219 167.837 314.967 170.154 313.338 172.284C311.929 174.131 310.865 176.135 310.144 178.233C310.865 176.135 311.929 174.1 313.338 172.284C314.998 170.154 316.219 167.837 317.034 165.395Z" fill="#333333"/>
<path opacity="0.23" d="M411.419 141.659C410.761 140.344 410.229 138.997 409.822 137.619C410.229 138.997 410.761 140.375 411.419 141.659Z" fill="#333333"/>
<path opacity="0.23" d="M412.229 131.012C412.229 128.82 412.574 126.628 413.294 124.498C412.574 126.596 412.229 128.788 412.229 131.012Z" fill="#333333"/>
<path opacity="0.23" d="M393.161 145.416C391.501 143.287 390.28 140.97 389.466 138.527C390.28 140.97 391.532 143.287 393.161 145.416C396.01 149.08 397.42 153.464 397.42 157.879C397.42 153.495 396.01 149.08 393.161 145.416Z" fill="#333333"/>
<path opacity="0.23" d="M400.111 56.0462C400.581 54.1674 400.8 52.2886 400.8 50.3784C400.8 52.2886 400.581 54.1987 400.111 56.0462Z" fill="#333333"/>
<path opacity="0.23" d="M433.026 141.659C432.368 140.344 431.836 138.997 431.429 137.619C431.836 138.997 432.368 140.375 433.026 141.659Z" fill="#333333"/>
<path opacity="0.23" d="M435.405 145.416C434.466 144.226 433.683 142.974 433.025 141.658C433.683 142.974 434.497 144.226 435.405 145.416C438.255 149.08 439.664 153.464 439.664 157.879C439.664 153.495 438.255 149.08 435.405 145.416Z" fill="#333333"/>
<path opacity="0.23" d="M418.053 211.645C418.053 209.453 417.709 207.261 416.989 205.132C417.709 207.23 418.053 209.422 418.053 211.645Z" fill="#333333"/>
<path opacity="0.23" d="M439.666 211.645C439.666 209.453 439.321 207.261 438.601 205.132C439.321 207.23 439.666 209.422 439.666 211.645Z" fill="#333333"/>
<path opacity="0.23" d="M440.26 61.4636C442.108 57.9877 443.047 54.1987 443.047 50.3784C443.047 54.1987 442.108 58.019 440.26 61.4636Z" fill="#333333"/>
<path opacity="0.23" d="M433.841 131.012C433.841 128.82 434.186 126.628 434.906 124.498C434.186 126.596 433.841 128.788 433.841 131.012Z" fill="#333333"/>
<path opacity="0.23" d="M418.682 61.4636C420.529 57.9877 421.469 54.1987 421.469 50.3784C421.469 54.1987 420.529 58.019 418.682 61.4636Z" fill="#333333"/>
<path opacity="0.23" d="M331.254 145.416C329.594 143.287 328.373 140.97 327.559 138.527C328.373 140.97 329.625 143.287 331.254 145.416C334.103 149.08 335.513 153.464 335.513 157.879C335.513 153.495 334.103 149.08 331.254 145.416Z" fill="#333333"/>
<path opacity="0.23" d="M351.889 145.416C350.23 143.287 349.008 140.97 348.194 138.527C349.008 140.97 350.261 143.287 351.889 145.416C354.739 149.08 356.148 153.464 356.148 157.879C356.148 153.495 354.739 149.08 351.889 145.416Z" fill="#333333"/>
<path opacity="0.23" d="M356.743 61.4636C358.591 57.9877 359.53 54.1987 359.53 50.3784C359.53 54.1987 358.591 58.019 356.743 61.4636Z" fill="#333333"/>
<path opacity="0.23" d="M338.204 56.0462C338.674 54.1674 338.893 52.2886 338.893 50.3784C338.893 52.2886 338.674 54.1987 338.204 56.0462Z" fill="#333333"/>
<path opacity="0.23" d="M317.034 204.099C316.219 201.656 314.967 199.339 313.338 197.21C311.929 195.362 310.865 193.358 310.144 191.26C310.865 193.358 311.929 195.393 313.338 197.21C314.998 199.339 316.219 201.656 317.034 204.099Z" fill="#333333"/>
<path opacity="0.23" d="M372.523 145.416C370.863 143.287 369.642 140.97 368.827 138.527C369.642 140.97 370.894 143.287 372.523 145.416C375.372 149.08 376.781 153.464 376.781 157.879C376.781 153.495 375.372 149.08 372.523 145.416Z" fill="#333333"/>
<path opacity="0.23" d="M379.478 56.0462C379.948 54.1674 380.167 52.2886 380.167 50.3784C380.167 52.2886 379.948 54.1987 379.478 56.0462Z" fill="#333333"/>
<path d="M296.025 194.736C291.453 188.849 291.453 180.644 296.025 174.789C303.728 164.831 303.728 150.927 296.025 141.001C291.453 135.114 291.453 126.91 296.025 121.054C303.728 111.096 303.728 97.1927 296.025 87.2662C291.453 81.3792 291.453 73.1749 296.025 67.3192C303.728 57.3614 303.728 43.458 296.025 33.5315C293.676 30.494 292.549 26.8303 292.643 23.1979C288.885 25.3272 285.252 27.6758 281.745 30.1809C282.653 33.8133 284.219 37.3205 286.63 40.4519C291.202 46.3389 291.202 54.5431 286.63 60.3988C278.927 70.3567 278.927 84.2601 286.63 94.1866C291.202 100.074 291.202 108.278 286.63 114.134C278.927 124.091 278.927 137.995 286.63 147.921C291.202 153.808 291.202 162.013 286.63 167.868C278.927 177.826 278.927 191.73 286.63 201.656C291.202 207.543 291.202 215.747 286.63 221.603C284.375 224.515 282.841 227.803 281.902 231.216C285.346 233.69 288.947 235.976 292.643 238.074C292.737 234.692 293.833 231.342 296.025 228.523C303.728 218.566 303.728 204.662 296.025 194.736ZM297.622 50.3784C297.622 54.1987 296.682 58.019 294.835 61.4635C296.682 57.9877 297.622 54.1987 297.622 50.3784ZM289.981 145.416C288.321 143.287 287.1 140.97 286.286 138.527C287.1 140.97 288.352 143.287 289.981 145.416C292.831 149.08 294.24 153.464 294.24 157.879C294.24 153.495 292.831 149.08 289.981 145.416Z" fill="#333333"/>
<path opacity="0.23" d="M296.025 194.736C291.453 188.849 291.453 180.644 296.025 174.789C303.728 164.831 303.728 150.927 296.025 141.001C291.453 135.114 291.453 126.91 296.025 121.054C303.728 111.096 303.728 97.1927 296.025 87.2662C291.453 81.3792 291.453 73.1749 296.025 67.3192C303.728 57.3614 303.728 43.458 296.025 33.5315C293.676 30.494 292.549 26.8303 292.643 23.1979C288.885 25.3272 285.252 27.6758 281.745 30.1809C282.653 33.8133 284.219 37.3205 286.63 40.4519C291.202 46.3389 291.202 54.5431 286.63 60.3988C278.927 70.3567 278.927 84.2601 286.63 94.1866C291.202 100.074 291.202 108.278 286.63 114.134C278.927 124.091 278.927 137.995 286.63 147.921C291.202 153.808 291.202 162.013 286.63 167.868C278.927 177.826 278.927 191.73 286.63 201.656C291.202 207.543 291.202 215.747 286.63 221.603C284.375 224.515 282.841 227.803 281.902 231.216C285.346 233.69 288.947 235.976 292.643 238.074C292.737 234.692 293.833 231.342 296.025 228.523C303.728 218.566 303.728 204.662 296.025 194.736ZM297.622 50.3784C297.622 54.1987 296.682 58.019 294.835 61.4635C296.682 57.9877 297.622 54.1987 297.622 50.3784ZM289.981 145.416C288.321 143.287 287.1 140.97 286.286 138.527C287.1 140.97 288.352 143.287 289.981 145.416C292.831 149.08 294.24 153.464 294.24 157.879C294.24 153.495 292.831 149.08 289.981 145.416Z" fill="#333333"/>
<path d="M316.658 228.524C324.361 218.566 324.361 204.662 316.658 194.736C312.086 188.849 312.086 180.645 316.658 174.789C324.361 164.831 324.361 150.928 316.658 141.001C312.086 135.114 312.086 126.91 316.658 121.054C324.361 111.096 324.361 97.1928 316.658 87.2663C312.086 81.3793 312.086 73.175 316.658 67.3193C324.361 57.3615 324.361 43.4581 316.658 33.5316C312.086 27.6446 312.086 19.4403 316.658 13.5846C316.94 13.2402 317.19 12.8644 317.472 12.4886C315.343 13.1462 313.276 13.8351 311.209 14.5867C310.802 15.4008 310.426 16.215 310.144 17.0918C310.426 16.2463 310.833 15.4008 311.209 14.5867C308.078 15.7453 305.009 17.0291 302.002 18.407C300.562 25.9849 302.284 34.0326 307.263 40.452C311.835 46.339 311.835 54.5432 307.263 60.399C299.56 70.3568 299.56 84.2602 307.263 94.1867C311.835 100.074 311.835 108.278 307.263 114.134C299.56 124.092 299.56 137.995 307.263 147.921C311.835 153.808 311.835 162.013 307.263 167.868C299.56 177.826 299.56 191.73 307.263 201.656C311.835 207.543 311.835 215.747 307.263 221.603C302.472 227.772 300.656 235.475 301.815 242.834C304.758 244.18 307.733 245.464 310.802 246.592C310.583 246.059 310.301 245.558 310.113 245.026C310.301 245.558 310.551 246.091 310.802 246.592C312.775 247.312 314.748 248.001 316.783 248.627L316.689 248.502C312.117 242.615 312.117 234.411 316.689 228.555L316.658 228.524ZM310.113 29.9931C310.833 32.0911 311.898 34.1266 313.307 35.9428C314.967 38.0721 316.188 40.3893 317.002 42.8318C316.188 40.3893 314.935 38.0721 313.307 35.9428C311.898 34.0952 310.833 32.0911 310.113 29.9931ZM313.307 64.7829C311.898 66.6304 310.833 68.6345 310.113 70.7326C310.833 68.6345 311.898 66.5991 313.307 64.7829ZM310.113 83.7592C310.833 85.8572 311.898 87.8926 313.307 89.7088C314.967 91.8382 316.188 94.1554 317.002 96.5979C316.188 94.1554 314.935 91.8382 313.307 89.7088C311.898 87.8613 310.833 85.8572 310.113 83.7592ZM313.307 118.549C314.967 116.42 316.188 114.102 317.002 111.66C316.188 114.102 314.935 116.42 313.307 118.549C311.898 120.396 310.833 122.401 310.113 124.499C310.833 122.401 311.898 120.365 313.307 118.549ZM313.307 143.444C314.967 145.573 316.188 147.89 317.002 150.333C316.188 147.89 314.935 145.573 313.307 143.444C311.898 141.596 310.833 139.592 310.113 137.494C310.833 139.592 311.898 141.627 313.307 143.444ZM310.614 145.416C308.954 143.287 307.733 140.97 306.919 138.527C307.733 140.97 308.986 143.287 310.614 145.416C313.464 149.08 314.873 153.464 314.873 157.879C314.873 153.495 313.464 149.08 310.614 145.416ZM313.307 172.315C314.967 170.186 316.188 167.868 317.002 165.426C316.188 167.868 314.935 170.186 313.307 172.315C311.898 174.163 310.833 176.167 310.113 178.265C310.833 176.167 311.898 174.131 313.307 172.315ZM310.113 191.26C310.833 193.358 311.898 195.393 313.307 197.21C314.967 199.339 316.188 201.656 317.002 204.099C316.188 201.656 314.935 199.339 313.307 197.21C311.898 195.362 310.833 193.358 310.113 191.26ZM313.307 226.05C314.967 223.92 316.188 221.603 317.002 219.161C316.188 221.603 314.935 223.92 313.307 226.05C311.898 227.897 310.833 229.901 310.113 231.999C310.833 229.901 311.898 227.866 313.307 226.05Z" fill="#333333"/>
<path opacity="0.23" d="M316.658 228.524C324.361 218.566 324.361 204.662 316.658 194.736C312.086 188.849 312.086 180.645 316.658 174.789C324.361 164.831 324.361 150.928 316.658 141.001C312.086 135.114 312.086 126.91 316.658 121.054C324.361 111.096 324.361 97.1928 316.658 87.2663C312.086 81.3793 312.086 73.175 316.658 67.3193C324.361 57.3615 324.361 43.4581 316.658 33.5316C312.086 27.6446 312.086 19.4403 316.658 13.5846C316.94 13.2402 317.19 12.8644 317.472 12.4886C315.343 13.1462 313.276 13.8351 311.209 14.5867C310.802 15.4008 310.426 16.215 310.144 17.0918C310.426 16.2463 310.833 15.4008 311.209 14.5867C308.078 15.7453 305.009 17.0291 302.002 18.407C300.562 25.9849 302.284 34.0326 307.263 40.452C311.835 46.339 311.835 54.5432 307.263 60.399C299.56 70.3568 299.56 84.2602 307.263 94.1867C311.835 100.074 311.835 108.278 307.263 114.134C299.56 124.092 299.56 137.995 307.263 147.921C311.835 153.808 311.835 162.013 307.263 167.868C299.56 177.826 299.56 191.73 307.263 201.656C311.835 207.543 311.835 215.747 307.263 221.603C302.472 227.772 300.656 235.475 301.815 242.834C304.758 244.18 307.733 245.464 310.802 246.592C310.583 246.059 310.301 245.558 310.113 245.026C310.301 245.558 310.551 246.091 310.802 246.592C312.775 247.312 314.748 248.001 316.783 248.627L316.689 248.502C312.117 242.615 312.117 234.411 316.689 228.555L316.658 228.524ZM310.113 29.9931C310.833 32.0911 311.898 34.1266 313.307 35.9428C314.967 38.0721 316.188 40.3893 317.002 42.8318C316.188 40.3893 314.935 38.0721 313.307 35.9428C311.898 34.0952 310.833 32.0911 310.113 29.9931ZM313.307 64.7829C311.898 66.6304 310.833 68.6345 310.113 70.7326C310.833 68.6345 311.898 66.5991 313.307 64.7829ZM310.113 83.7592C310.833 85.8572 311.898 87.8926 313.307 89.7088C314.967 91.8382 316.188 94.1554 317.002 96.5979C316.188 94.1554 314.935 91.8382 313.307 89.7088C311.898 87.8613 310.833 85.8572 310.113 83.7592ZM313.307 118.549C314.967 116.42 316.188 114.102 317.002 111.66C316.188 114.102 314.935 116.42 313.307 118.549C311.898 120.396 310.833 122.401 310.113 124.499C310.833 122.401 311.898 120.365 313.307 118.549ZM313.307 143.444C314.967 145.573 316.188 147.89 317.002 150.333C316.188 147.89 314.935 145.573 313.307 143.444C311.898 141.596 310.833 139.592 310.113 137.494C310.833 139.592 311.898 141.627 313.307 143.444ZM310.614 145.416C308.954 143.287 307.733 140.97 306.919 138.527C307.733 140.97 308.986 143.287 310.614 145.416C313.464 149.08 314.873 153.464 314.873 157.879C314.873 153.495 313.464 149.08 310.614 145.416ZM313.307 172.315C314.967 170.186 316.188 167.868 317.002 165.426C316.188 167.868 314.935 170.186 313.307 172.315C311.898 174.163 310.833 176.167 310.113 178.265C310.833 176.167 311.898 174.131 313.307 172.315ZM310.113 191.26C310.833 193.358 311.898 195.393 313.307 197.21C314.967 199.339 316.188 201.656 317.002 204.099C316.188 201.656 314.935 199.339 313.307 197.21C311.898 195.362 310.833 193.358 310.113 191.26ZM313.307 226.05C314.967 223.92 316.188 221.603 317.002 219.161C316.188 221.603 314.935 223.92 313.307 226.05C311.898 227.897 310.833 229.901 310.113 231.999C310.833 229.901 311.898 227.866 313.307 226.05Z" fill="#333333"/>
<path d="M275.387 194.736C270.815 188.849 270.815 180.645 275.387 174.789C283.09 164.831 283.09 150.928 275.387 141.001C270.815 135.114 270.815 126.91 275.387 121.054C283.09 111.096 283.09 97.1928 275.387 87.2663C270.815 81.3793 270.815 73.175 275.387 67.3193C282.871 57.6746 283.028 44.3975 276.044 34.5336C272.975 37.0074 270.063 39.6378 267.245 42.3621C270.47 48.0299 270.094 55.1382 265.992 60.399C258.289 70.3568 258.289 84.2602 265.992 94.1867C270.564 100.074 270.564 108.278 265.992 114.134C258.289 124.092 258.289 137.995 265.992 147.921C270.564 153.808 270.564 162.013 265.992 167.868C258.289 177.826 258.289 191.73 265.992 201.656C269.969 206.76 270.47 213.649 267.527 219.223C270.345 221.979 273.289 224.578 276.357 227.052C282.996 217.25 282.714 204.224 275.387 194.767V194.736ZM269.343 145.416C267.683 143.287 266.462 140.97 265.648 138.527C266.462 140.97 267.715 143.287 269.343 145.416C272.193 149.08 273.602 153.464 273.602 157.879C273.602 153.495 272.193 149.08 269.343 145.416Z" fill="#333333"/>
<path opacity="0.23" d="M275.387 194.736C270.815 188.849 270.815 180.645 275.387 174.789C283.09 164.831 283.09 150.928 275.387 141.001C270.815 135.114 270.815 126.91 275.387 121.054C283.09 111.096 283.09 97.1928 275.387 87.2663C270.815 81.3793 270.815 73.175 275.387 67.3193C282.871 57.6746 283.028 44.3975 276.044 34.5336C272.975 37.0074 270.063 39.6378 267.245 42.3621C270.47 48.0299 270.094 55.1382 265.992 60.399C258.289 70.3568 258.289 84.2602 265.992 94.1867C270.564 100.074 270.564 108.278 265.992 114.134C258.289 124.092 258.289 137.995 265.992 147.921C270.564 153.808 270.564 162.013 265.992 167.868C258.289 177.826 258.289 191.73 265.992 201.656C269.969 206.76 270.47 213.649 267.527 219.223C270.345 221.979 273.289 224.578 276.357 227.052C282.996 217.25 282.714 204.224 275.387 194.767V194.736ZM269.343 145.416C267.683 143.287 266.462 140.97 265.648 138.527C266.462 140.97 267.715 143.287 269.343 145.416C272.193 149.08 273.602 153.464 273.602 157.879C273.602 153.495 272.193 149.08 269.343 145.416Z" fill="#333333"/>
<path d="M337.296 248.502C332.724 242.615 332.724 234.41 337.296 228.555C344.999 218.597 344.999 204.693 337.296 194.767C332.724 188.88 332.724 180.676 337.296 174.82C344.999 164.862 344.999 150.959 337.296 141.032C332.724 135.145 332.724 126.941 337.296 121.085C344.999 111.127 344.999 97.224 337.296 87.2975C332.724 81.4105 332.724 73.2062 337.296 67.3505C344.999 57.3927 344.999 43.4893 337.296 33.5627C332.724 27.6757 332.724 19.4715 337.296 13.6158C337.86 12.8955 338.423 12.0814 339.018 11.1106L341.085 7.72873C335.793 8.26107 330.594 9.16917 325.521 10.3591C320.323 19.7846 321.075 31.6839 327.901 40.4831C332.473 46.3701 332.473 54.5744 327.901 60.4301C320.198 70.3879 320.198 84.2913 327.901 94.2179C332.473 100.105 332.473 108.309 327.901 114.165C320.198 124.123 320.198 138.026 327.901 147.953C332.473 153.84 332.473 162.044 327.901 167.9C320.198 177.857 320.198 191.761 327.901 201.687C332.473 207.574 332.473 215.779 327.901 221.634C321.294 230.152 320.386 241.55 325.083 250.913C329.279 251.915 333.538 252.666 337.891 253.23L339.864 251.79L337.327 248.502H337.296ZM338.893 50.3783C338.893 52.2885 338.674 54.1986 338.204 56.0462C338.674 54.1673 338.893 52.2885 338.893 50.3783ZM331.252 145.416C329.592 143.287 328.371 140.97 327.557 138.527C328.371 140.97 329.624 143.287 331.252 145.416C334.102 149.08 335.511 153.464 335.511 157.879C335.511 153.495 334.102 149.08 331.252 145.416Z" fill="#333333"/>
<path opacity="0.23" d="M337.296 248.502C332.724 242.615 332.724 234.41 337.296 228.555C344.999 218.597 344.999 204.693 337.296 194.767C332.724 188.88 332.724 180.676 337.296 174.82C344.999 164.862 344.999 150.959 337.296 141.032C332.724 135.145 332.724 126.941 337.296 121.085C344.999 111.127 344.999 97.224 337.296 87.2975C332.724 81.4105 332.724 73.2062 337.296 67.3505C344.999 57.3927 344.999 43.4893 337.296 33.5627C332.724 27.6757 332.724 19.4715 337.296 13.6158C337.86 12.8955 338.423 12.0814 339.018 11.1106L341.085 7.72873C335.793 8.26107 330.594 9.16917 325.521 10.3591C320.323 19.7846 321.075 31.6839 327.901 40.4831C332.473 46.3701 332.473 54.5744 327.901 60.4301C320.198 70.3879 320.198 84.2913 327.901 94.2179C332.473 100.105 332.473 108.309 327.901 114.165C320.198 124.123 320.198 138.026 327.901 147.953C332.473 153.84 332.473 162.044 327.901 167.9C320.198 177.857 320.198 191.761 327.901 201.687C332.473 207.574 332.473 215.779 327.901 221.634C321.294 230.152 320.386 241.55 325.083 250.913C329.279 251.915 333.538 252.666 337.891 253.23L339.864 251.79L337.327 248.502H337.296ZM338.893 50.3783C338.893 52.2885 338.674 54.1986 338.204 56.0462C338.674 54.1673 338.893 52.2885 338.893 50.3783ZM331.252 145.416C329.592 143.287 328.371 140.97 327.557 138.527C328.371 140.97 329.624 143.287 331.252 145.416C334.102 149.08 335.511 153.464 335.511 157.879C335.511 153.495 334.102 149.08 331.252 145.416Z" fill="#333333"/>
<path d="M357.929 248.502C353.357 242.615 353.357 234.411 357.929 228.555C365.633 218.597 365.633 204.694 357.929 194.767C353.357 188.88 353.357 180.676 357.929 174.82C365.633 164.862 365.633 150.959 357.929 141.032C353.357 135.145 353.357 126.941 357.929 121.085C365.633 111.127 365.633 97.2241 357.929 87.2976C353.357 81.4106 353.357 73.2063 357.929 67.3506C365.633 57.3928 365.633 43.4894 357.929 33.5629C353.357 27.6758 353.357 19.4716 357.929 13.6159C358.493 12.8957 359.057 12.0815 359.651 11.1108L361.937 7.3844C359.213 7.19651 356.489 7.07126 353.733 7.07126C351.885 7.07126 350.038 7.13389 348.19 7.19651C340.863 16.9978 340.925 30.6507 348.535 40.4519C353.107 46.3389 353.107 54.5432 348.535 60.3989C340.831 70.3567 340.831 84.2601 348.535 94.1867C353.107 100.074 353.107 108.278 348.535 114.134C340.831 124.091 340.831 137.995 348.535 147.921C353.107 153.808 353.107 162.013 348.535 167.868C340.831 177.826 340.831 191.73 348.535 201.656C353.107 207.543 353.107 215.747 348.535 221.603C341.144 231.123 340.925 244.243 347.689 254.076C349.693 254.17 351.697 254.232 353.733 254.232C354.923 254.232 356.082 254.17 357.24 254.138L360.497 251.758L357.96 248.47L357.929 248.502ZM359.526 50.3784C359.526 54.1987 358.587 58.019 356.739 61.4636C358.587 57.9877 359.526 54.1987 359.526 50.3784ZM351.885 145.416C350.226 143.287 349.004 140.97 348.19 138.527C349.004 140.97 350.257 143.287 351.885 145.416C354.735 149.08 356.144 153.464 356.144 157.879C356.144 153.495 354.735 149.08 351.885 145.416Z" fill="#333333"/>
<path opacity="0.23" d="M357.929 248.502C353.357 242.615 353.357 234.411 357.929 228.555C365.633 218.597 365.633 204.694 357.929 194.767C353.357 188.88 353.357 180.676 357.929 174.82C365.633 164.862 365.633 150.959 357.929 141.032C353.357 135.145 353.357 126.941 357.929 121.085C365.633 111.127 365.633 97.2241 357.929 87.2976C353.357 81.4106 353.357 73.2063 357.929 67.3506C365.633 57.3928 365.633 43.4894 357.929 33.5629C353.357 27.6758 353.357 19.4716 357.929 13.6159C358.493 12.8957 359.057 12.0815 359.651 11.1108L361.937 7.3844C359.213 7.19651 356.489 7.07126 353.733 7.07126C351.885 7.07126 350.038 7.13389 348.19 7.19651C340.863 16.9978 340.925 30.6507 348.535 40.4519C353.107 46.3389 353.107 54.5432 348.535 60.3989C340.831 70.3567 340.831 84.2601 348.535 94.1867C353.107 100.074 353.107 108.278 348.535 114.134C340.831 124.091 340.831 137.995 348.535 147.921C353.107 153.808 353.107 162.013 348.535 167.868C340.831 177.826 340.831 191.73 348.535 201.656C353.107 207.543 353.107 215.747 348.535 221.603C341.144 231.123 340.925 244.243 347.689 254.076C349.693 254.17 351.697 254.232 353.733 254.232C354.923 254.232 356.082 254.17 357.24 254.138L360.497 251.758L357.96 248.47L357.929 248.502ZM359.526 50.3784C359.526 54.1987 358.587 58.019 356.739 61.4636C358.587 57.9877 359.526 54.1987 359.526 50.3784ZM351.885 145.416C350.226 143.287 349.004 140.97 348.19 138.527C349.004 140.97 350.257 143.287 351.885 145.416C354.735 149.08 356.144 153.464 356.144 157.879C356.144 153.495 354.735 149.08 351.885 145.416Z" fill="#333333"/>
<path d="M378.57 228.524C386.273 218.566 386.273 204.662 378.57 194.736C373.998 188.849 373.998 180.645 378.57 174.789C386.273 164.831 386.273 150.928 378.57 141.001C373.998 135.114 373.998 126.91 378.57 121.054C386.273 111.096 386.273 97.193 378.57 87.2665C373.998 81.3794 373.998 73.1752 378.57 67.3195C386.273 57.3616 386.273 43.4583 378.57 33.5317C373.998 27.6447 373.998 19.4405 378.57 13.5848C379.133 12.8645 379.697 12.0504 380.292 11.0796L380.887 10.1089C376.785 9.2008 372.588 8.48058 368.33 7.97955C361.534 17.7182 361.753 30.9014 369.175 40.4834C373.747 46.3705 373.747 54.5747 369.175 60.4304C361.472 70.3883 361.472 84.2916 369.175 94.2182C373.747 100.105 373.747 108.309 369.175 114.165C361.472 124.123 361.472 138.026 369.175 147.953C373.747 153.84 373.747 162.044 369.175 167.9C361.472 177.858 361.472 191.761 369.175 201.688C373.747 207.575 373.747 215.779 369.175 221.635C361.941 230.935 361.566 243.68 367.891 253.45C372.244 252.949 376.534 252.228 380.73 251.289L378.601 248.533C374.029 242.646 374.029 234.442 378.601 228.586L378.57 228.524ZM380.167 50.3786C380.167 52.2888 379.947 54.1989 379.478 56.0465C379.947 54.1676 380.167 52.2888 380.167 50.3786ZM372.526 145.416C370.866 143.287 369.645 140.97 368.831 138.527C369.645 140.97 370.897 143.287 372.526 145.416C375.375 149.08 376.785 153.464 376.785 157.879C376.785 153.495 375.375 149.08 372.526 145.416Z" fill="#333333"/>
<path opacity="0.23" d="M378.57 228.524C386.273 218.566 386.273 204.662 378.57 194.736C373.998 188.849 373.998 180.645 378.57 174.789C386.273 164.831 386.273 150.928 378.57 141.001C373.998 135.114 373.998 126.91 378.57 121.054C386.273 111.096 386.273 97.193 378.57 87.2665C373.998 81.3794 373.998 73.1752 378.57 67.3195C386.273 57.3616 386.273 43.4583 378.57 33.5317C373.998 27.6447 373.998 19.4405 378.57 13.5848C379.133 12.8645 379.697 12.0504 380.292 11.0796L380.887 10.1089C376.785 9.2008 372.588 8.48058 368.33 7.97955C361.534 17.7182 361.753 30.9014 369.175 40.4834C373.747 46.3705 373.747 54.5747 369.175 60.4304C361.472 70.3883 361.472 84.2916 369.175 94.2182C373.747 100.105 373.747 108.309 369.175 114.165C361.472 124.123 361.472 138.026 369.175 147.953C373.747 153.84 373.747 162.044 369.175 167.9C361.472 177.858 361.472 191.761 369.175 201.688C373.747 207.575 373.747 215.779 369.175 221.635C361.941 230.935 361.566 243.68 367.891 253.45C372.244 252.949 376.534 252.228 380.73 251.289L378.601 248.533C374.029 242.646 374.029 234.442 378.601 228.586L378.57 228.524ZM380.167 50.3786C380.167 52.2888 379.947 54.1989 379.478 56.0465C379.947 54.1676 380.167 52.2888 380.167 50.3786ZM372.526 145.416C370.866 143.287 369.645 140.97 368.831 138.527C369.645 140.97 370.897 143.287 372.526 145.416C375.375 149.08 376.785 153.464 376.785 157.879C376.785 153.495 375.375 149.08 372.526 145.416Z" fill="#333333"/>
<path d="M399.203 228.524C406.906 218.566 406.906 204.662 399.203 194.736C394.631 188.849 394.631 180.645 399.203 174.789C406.906 164.831 406.906 150.928 399.203 141.001C394.631 135.114 394.631 126.91 399.203 121.054C406.906 111.096 406.906 97.1929 399.203 87.2664C394.631 81.3794 394.631 73.1751 399.203 67.3194C406.906 57.3616 406.906 43.4582 399.203 33.5317C395.069 28.2083 394.725 20.9748 398.076 15.307C394.412 13.8978 390.623 12.6453 386.802 11.5806C382.324 20.7869 383.264 32.0286 389.808 40.4521C394.38 46.3391 394.38 54.5433 389.808 60.399C382.105 70.3569 382.105 84.2603 389.808 94.1868C394.38 100.074 394.38 108.278 389.808 114.134C382.105 124.092 382.105 137.995 389.808 147.922C394.38 153.809 394.38 162.013 389.808 167.869C382.105 177.826 382.105 191.73 389.808 201.656C394.38 207.543 394.38 215.748 389.808 221.603C383.451 229.808 382.418 240.642 386.552 249.786C390.341 248.752 394.067 247.531 397.7 246.153C394.725 240.58 395.226 233.659 399.203 228.524ZM400.8 50.3786C400.8 52.2887 400.581 54.1989 400.111 56.0464C400.581 54.1676 400.8 52.2887 400.8 50.3786ZM393.159 145.416C391.499 143.287 390.278 140.97 389.464 138.527C390.278 140.97 391.531 143.287 393.159 145.416C396.009 149.08 397.418 153.464 397.418 157.879C397.418 153.495 396.009 149.08 393.159 145.416Z" fill="#333333"/>
<path opacity="0.23" d="M399.203 228.524C406.906 218.566 406.906 204.662 399.203 194.736C394.631 188.849 394.631 180.645 399.203 174.789C406.906 164.831 406.906 150.928 399.203 141.001C394.631 135.114 394.631 126.91 399.203 121.054C406.906 111.096 406.906 97.1929 399.203 87.2664C394.631 81.3794 394.631 73.1751 399.203 67.3194C406.906 57.3616 406.906 43.4582 399.203 33.5317C395.069 28.2083 394.725 20.9748 398.076 15.307C394.412 13.8978 390.623 12.6453 386.802 11.5806C382.324 20.7869 383.264 32.0286 389.808 40.4521C394.38 46.3391 394.38 54.5433 389.808 60.399C382.105 70.3569 382.105 84.2603 389.808 94.1868C394.38 100.074 394.38 108.278 389.808 114.134C382.105 124.092 382.105 137.995 389.808 147.922C394.38 153.809 394.38 162.013 389.808 167.869C382.105 177.826 382.105 191.73 389.808 201.656C394.38 207.543 394.38 215.748 389.808 221.603C383.451 229.808 382.418 240.642 386.552 249.786C390.341 248.752 394.067 247.531 397.7 246.153C394.725 240.58 395.226 233.659 399.203 228.524ZM400.8 50.3786C400.8 52.2887 400.581 54.1989 400.111 56.0464C400.581 54.1676 400.8 52.2887 400.8 50.3786ZM393.159 145.416C391.499 143.287 390.278 140.97 389.464 138.527C390.278 140.97 391.531 143.287 393.159 145.416C396.009 149.08 397.418 153.464 397.418 157.879C397.418 153.495 396.009 149.08 393.159 145.416Z" fill="#333333"/>
<path d="M419.841 194.736C415.269 188.849 415.269 180.644 419.841 174.789C427.544 164.831 427.544 150.927 419.841 141.001C415.269 135.114 415.269 126.91 419.841 121.054C427.544 111.096 427.544 97.1927 419.841 87.2662C415.269 81.3792 415.269 73.1749 419.841 67.3192C427.544 57.3614 427.544 43.458 419.841 33.5315C417.711 30.7758 416.615 27.4879 416.49 24.1686C412.858 22.0079 409.068 20.0665 405.217 18.2816C403.745 25.8596 405.436 33.9699 410.446 40.4519C415.018 46.3389 415.018 54.5431 410.446 60.3988C402.743 70.3567 402.743 84.2601 410.446 94.1866C415.018 100.074 415.018 108.278 410.446 114.134C402.743 124.091 402.743 137.995 410.446 147.921C415.018 153.808 415.018 162.013 410.446 167.868C402.743 177.826 402.743 191.729 410.446 201.656C415.018 207.543 415.018 215.747 410.446 221.603C405.592 227.866 403.808 235.663 405.06 243.053C409.006 241.237 412.858 239.264 416.553 237.041C416.835 234.003 417.899 231.028 419.841 228.492C427.544 218.534 427.544 204.631 419.841 194.704V194.736ZM421.438 50.3784C421.438 54.1987 420.498 58.019 418.651 61.4635C420.498 57.9877 421.438 54.1987 421.438 50.3784ZM413.296 124.498C412.576 126.597 412.231 128.788 412.231 131.012C412.231 128.82 412.576 126.628 413.296 124.498ZM413.797 145.416C412.858 144.226 412.075 142.974 411.417 141.659C410.759 140.343 410.227 138.997 409.82 137.619C410.227 138.997 410.759 140.375 411.417 141.659C412.075 142.942 412.889 144.226 413.797 145.416C416.647 149.08 418.056 153.464 418.056 157.879C418.056 153.495 416.647 149.08 413.797 145.416ZM416.991 205.132C417.711 207.23 418.056 209.422 418.056 211.645C418.056 209.453 417.711 207.261 416.991 205.132Z" fill="#333333"/>
<path opacity="0.23" d="M419.841 194.736C415.269 188.849 415.269 180.644 419.841 174.789C427.544 164.831 427.544 150.927 419.841 141.001C415.269 135.114 415.269 126.91 419.841 121.054C427.544 111.096 427.544 97.1927 419.841 87.2662C415.269 81.3792 415.269 73.1749 419.841 67.3192C427.544 57.3614 427.544 43.458 419.841 33.5315C417.711 30.7758 416.615 27.4879 416.49 24.1686C412.858 22.0079 409.068 20.0665 405.217 18.2816C403.745 25.8596 405.436 33.9699 410.446 40.4519C415.018 46.3389 415.018 54.5431 410.446 60.3988C402.743 70.3567 402.743 84.2601 410.446 94.1866C415.018 100.074 415.018 108.278 410.446 114.134C402.743 124.091 402.743 137.995 410.446 147.921C415.018 153.808 415.018 162.013 410.446 167.868C402.743 177.826 402.743 191.729 410.446 201.656C415.018 207.543 415.018 215.747 410.446 221.603C405.592 227.866 403.808 235.663 405.06 243.053C409.006 241.237 412.858 239.264 416.553 237.041C416.835 234.003 417.899 231.028 419.841 228.492C427.544 218.534 427.544 204.631 419.841 194.704V194.736ZM421.438 50.3784C421.438 54.1987 420.498 58.019 418.651 61.4635C420.498 57.9877 421.438 54.1987 421.438 50.3784ZM413.296 124.498C412.576 126.597 412.231 128.788 412.231 131.012C412.231 128.82 412.576 126.628 413.296 124.498ZM413.797 145.416C412.858 144.226 412.075 142.974 411.417 141.659C410.759 140.343 410.227 138.997 409.82 137.619C410.227 138.997 410.759 140.375 411.417 141.659C412.075 142.942 412.889 144.226 413.797 145.416C416.647 149.08 418.056 153.464 418.056 157.879C418.056 153.495 416.647 149.08 413.797 145.416ZM416.991 205.132C417.711 207.23 418.056 209.422 418.056 211.645C418.056 209.453 417.711 207.261 416.991 205.132Z" fill="#333333"/>
<path d="M447.239 211.426C447.208 205.539 445.298 199.652 441.477 194.736C436.905 188.849 436.905 180.645 441.477 174.789C449.181 164.831 449.181 150.928 441.477 141.001C436.905 135.114 436.905 126.91 441.477 121.054C449.181 111.096 449.181 97.1929 441.477 87.2664C436.905 81.3794 436.905 73.1751 441.477 67.3194C445.454 62.1839 447.364 55.9838 447.208 49.8149C441.321 43.0198 434.713 36.8509 427.511 31.4649C428.482 34.6276 429.953 37.6964 432.083 40.452C436.655 46.3391 436.655 54.5433 432.083 60.399C424.379 70.3569 424.379 84.2602 432.083 94.1868C436.655 100.074 436.655 108.278 432.083 114.134C424.379 124.092 424.379 137.995 432.083 147.922C436.655 153.809 436.655 162.013 432.083 167.868C424.379 177.826 424.379 191.73 432.083 201.656C436.655 207.543 436.655 215.748 432.083 221.603C430.173 224.077 428.732 226.801 427.761 229.651C434.901 224.296 441.415 218.19 447.271 211.426H447.239ZM443.043 50.3786C443.043 54.1989 442.104 58.0192 440.256 61.4637C442.104 57.9879 443.043 54.1989 443.043 50.3786ZM434.901 124.499C434.181 126.597 433.836 128.789 433.836 131.012C433.836 128.82 434.181 126.628 434.901 124.499ZM435.402 145.416C434.463 144.226 433.68 142.974 433.022 141.659C432.365 140.344 431.832 138.997 431.425 137.619C431.832 138.997 432.365 140.375 433.022 141.659C433.68 142.943 434.494 144.226 435.402 145.416C438.252 149.08 439.661 153.464 439.661 157.879C439.661 153.495 438.252 149.08 435.402 145.416ZM438.596 205.132C439.317 207.23 439.661 209.422 439.661 211.645C439.661 209.453 439.317 207.261 438.596 205.132Z" fill="#333333"/>
<path opacity="0.23" d="M447.239 211.426C447.208 205.539 445.298 199.652 441.477 194.736C436.905 188.849 436.905 180.645 441.477 174.789C449.181 164.831 449.181 150.928 441.477 141.001C436.905 135.114 436.905 126.91 441.477 121.054C449.181 111.096 449.181 97.1929 441.477 87.2664C436.905 81.3794 436.905 73.1751 441.477 67.3194C445.454 62.1839 447.364 55.9838 447.208 49.8149C441.321 43.0198 434.713 36.8509 427.511 31.4649C428.482 34.6276 429.953 37.6964 432.083 40.452C436.655 46.3391 436.655 54.5433 432.083 60.399C424.379 70.3569 424.379 84.2602 432.083 94.1868C436.655 100.074 436.655 108.278 432.083 114.134C424.379 124.092 424.379 137.995 432.083 147.922C436.655 153.809 436.655 162.013 432.083 167.868C424.379 177.826 424.379 191.73 432.083 201.656C436.655 207.543 436.655 215.748 432.083 221.603C430.173 224.077 428.732 226.801 427.761 229.651C434.901 224.296 441.415 218.19 447.271 211.426H447.239ZM443.043 50.3786C443.043 54.1989 442.104 58.0192 440.256 61.4637C442.104 57.9879 443.043 54.1989 443.043 50.3786ZM434.901 124.499C434.181 126.597 433.836 128.789 433.836 131.012C433.836 128.82 434.181 126.628 434.901 124.499ZM435.402 145.416C434.463 144.226 433.68 142.974 433.022 141.659C432.365 140.344 431.832 138.997 431.425 137.619C431.832 138.997 432.365 140.375 433.022 141.659C433.68 142.943 434.494 144.226 435.402 145.416C438.252 149.08 439.661 153.464 439.661 157.879C439.661 153.495 438.252 149.08 435.402 145.416ZM438.596 205.132C439.317 207.23 439.661 209.422 439.661 211.645C439.661 209.453 439.317 207.261 438.596 205.132Z" fill="#333333"/>
</g>
</svg>
